<svg xmlns="http://www.w3.org/2000/svg" width="24" height="24" fill="none" viewBox="0 0 24 24"><path fill="#ffda44" d="M24 18H0V6h24z"/><path fill="#d80027" d="M24 24H0v-6.75h24zm0-17.25H0V0h24z"/><path fill="#eee" d="M6.75 14.25H6V10.5h.75zm6 0h.75V10.5h-.75z"/><path fill="#d80027" d="M5.719 11.625a.188.188 0 1 0 0 .375h8.063a.188.188 0 1 0 0-.375zm0 1.125a.188.188 0 1 0 0 .375h1.313a.188.188 0 1 0 0-.375zm6.75 0a.188.188 0 1 0 0 .375h1.313a.188.188 0 1 0 0-.375z"/><path fill="#eee" d="M12 12.75h-.764c.469.277.764.675.764 1.125 0 .83-1.008 1.5-2.25 1.5s-2.25-.67-2.25-1.5 1.008-1.5 2.25-1.5V10.5H12zM9.187 7.875q.352 0 .563.281a.75.75 0 0 1 1.266.234.75.75 0 1 1-.469.938.75.75 0 0 1-.797-.188.75.75 0 0 1-.797.188.705.705 0 0 1-.703.516c-.422 0-.75-.328-.75-.75s.328-.75.75-.75l.234.047a.76.76 0 0 1 .703-.516m-.938.844a.4.4 0 0 0-.375.375c0 .234.188.375.375.375s.375-.141.375-.328l-.188-.375zm2.813.047-.188.375c0 .188.188.328.375.328.234 0 .375-.141.375-.375a.37.37 0 0 0-.375-.375zM9.187 8.25a.4.4 0 0 0-.375.375.37.37 0 0 0 .375.375c.234 0 .375-.141.375-.375a.37.37 0 0 0-.375-.375m1.125 0a.4.4 0 0 0-.375.375.37.37 0 0 0 .375.375c.234 0 .375-.141.375-.375a.37.37 0 0 0-.375-.375"/><path fill="#ff9811" d="M9.375 7.5h.75V9h-.75z"/><path fill="#d80027" d="M12 13.875a1.125 1.125 0 1 1-2.25 0V12.75H12zM9.75 12.75H7.5V10.5h2.25zm1.125-1.875a.47.47 0 0 1 .469.469v.563a.469.469 0 1 1-.938 0v-.563a.47.47 0 0 1 .469-.469M6.375 9a.375.375 0 0 1 .375.375v.375a.375.375 0 0 1-.75 0v-.375A.375.375 0 0 1 6.375 9m3.375-.375c1.031 0 1.875.516 1.875 1.125l-.375.375h-3l-.375-.375c0-.609.844-1.125 1.875-1.125M13.125 9a.375.375 0 0 1 .375.375v.375a.375.375 0 0 1-.75 0v-.375A.375.375 0 0 1 13.125 9"/><path fill="#ff9811" d="M6.75 14.25a.375.375 0 0 1 0 .75H6a.375.375 0 0 1 0-.75zm6.75 0a.375.375 0 0 1 0 .75h-.75a.375.375 0 0 1 0-.75zm-5.344-1.125.234-.375h.469l.234.375.234-.375h.422v1.125c0 .375-.141.656-.422.891l-.234-.281-.234.469a1 1 0 0 1-.469 0l-.234-.469-.234.281c-.234-.234-.422-.516-.422-.891V12.75h.422zm1.219-2.25v.375H9V12h.375v.375h-1.5V12h.375v-.75h-.375v-.375zM6.75 9.75a.375.375 0 0 1 0 .75H6a.375.375 0 0 1 0-.75zm4.5.75h-3v-.375h3zm2.25-.75a.375.375 0 0 1 0 .75h-.75a.375.375 0 0 1 0-.75z"/><path fill="#d80027" d="M7.922 12.75v2.016q.216.141.469.188v-2.203zm.938 0v2.203q.253-.047.469-.188v-2.016z"/><path fill="#ffda44" d="M8.719 9.188a.281.281 0 1 1 0 .563.281.281 0 0 1 0-.563m1.031 0a.281.281 0 1 1 0 .563.281.281 0 0 1 0-.563m1.031 0a.281.281 0 1 1 0 .563.281.281 0 0 1 0-.563"/><path fill="#0052b4" d="M6.75 15a.375.375 0 0 1 0 .75H6A.375.375 0 0 1 6 15zm6.75 0a.375.375 0 0 1 0 .75h-.75a.375.375 0 0 1 0-.75zm-3.75-3a.75.75 0 1 1 0 1.5.75.75 0 0 1 0-1.5"/></svg>