<svg xmlns="http://www.w3.org/2000/svg" width="24" height="24" fill="none" viewBox="0 0 24 24"><path fill="#eee" d="M0 0h24v24H0z"/><path fill="#0052b4" d="M24 21.389H0v-3.127h24zm0-15.652H0V2.611h24zm-7.481 3.652H13.5L12 6.783l-1.505 2.606H7.481L8.986 12l-1.5 2.611h3.009L12 17.217l1.505-2.606h3.014L15.014 12zM13.847 12l-.923 1.603h-1.847L10.148 12l.928-1.603h1.847zM12 8.794l.342.595h-.684zm-2.775 1.603h.689l-.347.595zm0 3.206.342-.595.347.595zM12 15.206l-.342-.595h.684zm2.775-1.603h-.689l.347-.595zm-.689-3.206h.689l-.342.595z"/></svg>