<svg xmlns="http://www.w3.org/2000/svg" width="24" height="24" fill="none" viewBox="0 0 24 24"><path fill="#d80027" d="M6.375 24V0h11.25v24z"/><path fill="#d80027" d="M16.125 24V0H24v24z"/><path fill="#496e2d" d="M0 24V0h7.875v24z"/><path fill="#ffda44" d="M7.828 16.172a4.172 4.172 0 1 0 0-8.344 4.172 4.172 0 0 0 0 8.344"/><path fill="#d80027" d="M5.086 9.497v3.042a2.737 2.737 0 1 0 5.48 0V9.492z"/><path fill="#eee" d="M7.828 14.259a1.61 1.61 0 0 1-1.608-1.608v-2.123h3.216v2.114a1.61 1.61 0 0 1-1.608 1.608z"/><path fill="#0052b4" d="M8.147 13.406a.32.32 0 0 1-.319.314v.005a.33.33 0 0 1-.319-.319v-.417h.637zm-.928-1.012c0 .173-.141.319-.319.319s-.314-.141-.314-.319v-.417h.633zm.928 0c0 .173-.145.319-.319.319s-.319-.141-.319-.319v-.417h.637zm.923 0a.314.314 0 1 1-.633 0v-.417h.633zm-.923-1.013a.319.319 0 0 1-.637.005v-.422h.637z"/></svg>