<svg xmlns="http://www.w3.org/2000/svg" viewBox="0 0 24 24" width="24" height="24"><path fill="currentColor" d="M0 4.364c0-.603.483-1.091 1.09-1.091h1.093c.602 0 1.09.484 1.09 1.091 0 .602-.482 1.091-1.09 1.091H1.09C.488 5.455 0 4.97 0 4.364m12 0c0-.603.485-1.091 1.087-1.091h9.828c.598 0 1.085.484 1.085 1.091 0 .602-.485 1.091-1.085 1.091h-9.828c-.6 0-1.087-.485-1.087-1.091M7.636 5.455a1.092 1.092 0 1 1 .001-2.183 1.092 1.092 0 0 1-.001 2.183m0 2.181a3.272 3.272 0 1 1 0-6.544 3.272 3.272 0 0 1 0 6.544M0 19.636c0-.602.483-1.091 1.09-1.091h1.093c.602 0 1.09.485 1.09 1.091 0 .603-.482 1.091-1.09 1.091H1.09c-.602 0-1.09-.484-1.09-1.091m12 0c0-.602.485-1.091 1.087-1.091h9.828c.598 0 1.085.485 1.085 1.091 0 .603-.485 1.091-1.085 1.091h-9.828c-.6 0-1.087-.484-1.087-1.091m-4.364 1.091a1.091 1.091 0 1 1 0-2.182 1.091 1.091 0 0 1 0 2.182m0 2.182a3.272 3.272 0 1 1 0-6.545 3.272 3.272 0 0 1 0 6.545M0 12c0-.602.497-1.091 1.087-1.091h8.737c.6 0 1.085.484 1.085 1.091 0 .602-.497 1.091-1.085 1.091H1.087C.487 13.091 0 12.607 0 12m19.636 0c0-.602.485-1.091 1.102-1.091h2.161a1.09 1.09 0 1 1 0 2.182h-2.161A1.093 1.093 0 0 1 19.636 12m-4.363 1.091a1.092 1.092 0 1 1 .001-2.183 1.092 1.092 0 0 1-.001 2.183m0 2.182a3.273 3.273 0 1 1-.001-6.545 3.273 3.273 0 0 1 .001 6.545"/></svg>