<svg xmlns="http://www.w3.org/2000/svg" viewBox="0 0 24 24" width="24" height="24"><path fill="currentColor" d="m11.897 6.805 1.801-1.801 2.414-2.415c-4.364-.455-7.7 3.813-6.205 7.94l.553 1.523-1.146 1.145-6.45 6.452a1.055 1.055 0 1 0 1.491 1.492l6.452-6.45 1.145-1.147 1.524.552c4.126 1.495 8.395-1.841 7.939-6.205L19 10.308l-1.801 1.797-1.8-1.801L13.7 8.606zm10.487-3.279a8.47 8.47 0 0 1 1.61 4.978c.004 5.891-5.847 9.995-11.386 7.989l-6.451 6.45c-1.962 1.96-5.31 1.063-6.028-1.615a3.6 3.6 0 0 1 .932-3.481l6.45-6.45C5.283 5.249 10.542-1.006 16.98.136a8.5 8.5 0 0 1 3.617 1.573l-1.828 1.828-1.466 1.466L15.5 6.805l1.699 1.699L19 6.703l1.468-1.468 1.827-1.827z"/></svg>