<svg xmlns="http://www.w3.org/2000/svg" viewBox="0 0 24 24" width="24" height="24"><path fill="currentColor" d="m4.477 21.011.796-.796 3.378-3.378a1.126 1.126 0 0 0-1.591-1.594L5.603 16.7V4.116a1.126 1.126 0 0 0-2.253 0V16.7l-1.456-1.457a1.127 1.127 0 0 0-1.592 1.592l3.379 3.379zm6.634-18.019a1.126 1.126 0 0 0 0 2.252h10.761a1.127 1.127 0 0 0 0-2.252zm0 4.88a1.126 1.126 0 0 0 0 2.252h8.757a1.127 1.127 0 1 0 0-2.252zm-1.126 6.006c0-.621.504-1.126 1.126-1.126h5.253a1.127 1.127 0 0 1 0 2.253h-5.253a1.125 1.125 0 0 1-1.126-1.127"/></svg>