<svg xmlns="http://www.w3.org/2000/svg" viewBox="0 0 24 24" width="24" height="24"><path fill="currentColor" d="m4.477 2.989.796.796 3.378 3.378A1.126 1.126 0 0 1 7.06 8.757L5.603 7.3v12.584a1.126 1.126 0 0 1-2.253 0V7.3L1.894 8.757A1.127 1.127 0 0 1 .302 7.165l3.379-3.379zm6.634 18.019a1.126 1.126 0 0 1 0-2.252h10.761a1.127 1.127 0 0 1 0 2.252zm0-4.88a1.126 1.126 0 0 1 0-2.252h8.757a1.127 1.127 0 1 1 0 2.252zm-1.126-6.006c0 .621.504 1.126 1.126 1.126h5.253a1.127 1.127 0 0 0 0-2.253h-5.253c-.622 0-1.126.503-1.126 1.127"/></svg>