<svg xmlns="http://www.w3.org/2000/svg" viewBox="0 0 24 24" width="24" height="24"><path fill="currentColor" d="M19.992 10.689v10.834c0 1.365-1.031 2.477-2.303 2.477H6.207c-1.275 0-2.303-1.112-2.303-2.477V10.689c.96 1.622 2.646 2.702 4.558 2.702h1.737v.566h3.498v-.566h1.734c1.916 0 3.601-1.08 4.561-2.702m.765 1.207 2.087 1.598v7.873h-2.087zm-17.515 0v9.471H1.156v-7.873zm20.547-2.884v4.076l-3.032-2.427V9.012zm-20.547 0v1.649L.211 13.088V9.012zm9.324 1.346v2.51h-1.24v-2.51zM20.37 0v6.893c0 .725-.135 1.413-.378 2.044-.745 1.919-2.506 3.271-4.561 3.271h-1.734V9.323h-3.498v2.885H8.462c-2.056 0-3.817-1.352-4.558-3.271a5.7 5.7 0 0 1-.378-2.044V0zm0 0"/></svg>