<svg xmlns="http://www.w3.org/2000/svg" viewBox="0 0 24 24" width="24" height="24"><path fill="#0ac18e" d="M24 12a12 12 0 0 1-12 12A12 12 0 0 1 0 12a12 12 0 0 1 24 0"/><path d="M15.743 7.971c-.603-1.368-1.989-1.66-3.685-1.377l-.545-2.114-1.286.332.536 2.108c-.338.085-.685.158-1.029.256L9.198 5.08l-1.285.332.545 2.114c-.277.079-2.595.673-2.595.673l.353 1.377s.944-.265.935-.244c.524-.137.771.125.887.372l1.498 5.792c.018.168-.012.454-.372.552.022.012-.935.24-.935.24l.141 1.605 2.598-.664.551 2.139 1.285-.332-.551-2.154q.53-.123 1.032-.256l.549 2.142 1.285-.332-.551-2.135c1.979-.482 3.377-1.73 3.091-3.64-.183-1.151-1.441-2.096-2.485-2.202.642-.57.968-1.401.569-2.488m-.618 5.04c.256 1.892-2.373 2.123-3.241 2.351l-.755-2.829c.871-.228 3.563-1.188 3.996.478m-1.584-3.853c.271 1.682-1.977 1.877-2.701 2.062l-.689-2.567c.728-.18 2.839-1.051 3.39.505" fill="#fff"/></svg>