<svg xmlns="http://www.w3.org/2000/svg" viewBox="0 0 24 24" width="24" height="24"><path fill="#f3ba2f" d="M24 12a12 12 0 0 1-12 12A12 12 0 0 1 0 12a12 12 0 0 1 24 0"/><path fill="#fff" d="M9.087 10.803 12 7.89l2.915 2.914 1.695-1.695L12 4.5 7.392 9.108zM4.5 12l1.695-1.695L7.89 12l-1.695 1.695zm4.587 1.197L12 16.11l2.915-2.915 1.695 1.695L12 19.5l-4.608-4.608-.002-.002zM16.11 12l1.695-1.695L19.5 12l-1.695 1.695zm-2.391-.002h.002V12L12 13.72l-1.718-1.717-.003-.003.003-.002.301-.302.146-.146L12 10.279z"/></svg>