<svg xmlns="http://www.w3.org/2000/svg" viewBox="0 0 24 24" width="24" height="24"><path fill="currentColor" d="M22.797 10.725v-3.57a2.4 2.4 0 0 0-2.4-2.399h-7.199V3.181c.366-.328.6-.801.6-1.331a1.8 1.8 0 1 0-3.599 0c0 .53.233 1.003.599 1.331v1.575H3.599A2.4 2.4 0 0 0 1.2 7.155v3.597l-.087.006A1.2 1.2 0 0 0 0 11.954v2.4c0 .662.538 1.2 1.2 1.2v5.999a2.4 2.4 0 0 0 2.399 2.4h16.798a2.4 2.4 0 0 0 2.4-2.4v-5.999a1.2 1.2 0 0 0 1.199-1.2v-2.325a1.2 1.2 0 0 0-.086-.546c-.242-.586-.762-.726-1.113-.758M5.999 11.954c0-1.324.806-2.399 1.8-2.399.993 0 1.8 1.075 1.8 2.399s-.807 2.4-1.8 2.4c-.994 0-1.8-1.075-1.8-2.4m10.796 7.199c-1.201-.003-9.595 0-9.596 0v-2.399s8.4-.003 9.601 0zm-.597-4.799c-.994 0-1.8-1.075-1.8-2.4s.806-2.399 1.8-2.399c.993 0 1.799 1.075 1.799 2.399s-.806 2.4-1.799 2.4"/></svg>