<svg xmlns="http://www.w3.org/2000/svg" viewBox="0 0 24 24" width="24" height="24"><path fill="#f7931a" d="M24 12a12 12 0 0 1-12 12A12 12 0 0 1 0 12a12 12 0 0 1 24 0"/><path fill="#fff" d="M17.392 10.515c.235-1.572-.963-2.417-2.599-2.981l.531-2.13-1.296-.323-.518 2.074c-.34-.085-.69-.165-1.038-.244l.521-2.088-1.296-.323-.531 2.129a34 34 0 0 1-.828-.195l.001-.006-1.788-.447-.345 1.385s.963.22.942.234c.525.131.62.478.604.754l-.604 2.427q.054.012.135.042l-.138-.033-.847 3.399c-.065.159-.227.398-.595.307.014.019-.942-.235-.942-.235l-.643 1.484 1.687.421c.314.078.621.161.923.238l-.536 2.154 1.295.323.531-2.13q.53.142 1.034.267l-.53 2.121 1.296.323.537-2.15c2.211.419 3.873.25 4.572-1.749.564-1.61-.027-2.539-1.191-3.144.848-.196 1.485-.753 1.656-1.904m-2.963 4.154c-.4 1.61-3.111.739-3.99.521l.713-2.854c.879.22 3.696.654 3.277 2.333m.401-4.177c-.365 1.465-2.621.72-3.352.538l.645-2.588c.731.182 3.088.522 2.707 2.05"/></svg>