<svg xmlns="http://www.w3.org/2000/svg" viewBox="0 0 24 24" width="24" height="24"><path fill="currentColor" fill-rule="evenodd" clip-rule="evenodd" d="M6.429.002c.711 0 1.286.576 1.286 1.286V3.43h8.57V1.288A1.288 1.288 0 0 1 18.214.173c.397.23.643.655.643 1.115V3.43h3.428c.948 0 1.714.768 1.714 1.714v17.142c0 .946-.766 1.714-1.714 1.714H1.715a1.715 1.715 0 0 1-1.714-1.714V5.144c0-.946.768-1.714 1.714-1.714h3.428V1.288c0-.71.576-1.286 1.286-1.286m-3.857 6v2.571h18.856V6.002zm0 15.427V11.144h18.856v10.285zm14.57-4.286a1.714 1.714 0 1 0 0-3.428c-1.318 0-2.144 1.428-1.484 2.571.307.53.872.857 1.484.857"/></svg>