<svg xmlns="http://www.w3.org/2000/svg" viewBox="0 0 24 24" width="24" height="24"><path fill="currentColor" d="M.488 23.512a1.66 1.66 0 0 1 0-2.351l3.526-3.527-2.35-2.351c-.883-.927-.43-2.462.813-2.763a1.66 1.66 0 0 1 1.536.411l7.055 7.052c.912.896.514 2.444-.719 2.787a1.67 1.67 0 0 1-1.632-.435l-2.351-2.352-3.527 3.528a1.663 1.663 0 0 1-2.351 0M22.8 0h-3.004a1.2 1.2 0 0 0-.849.351L6.888 12.411l4.702 4.701L23.649 5.053c.225-.227.351-.531.351-.849V1.2c0-.664-.537-1.2-1.2-1.2m-2.813 17.634 2.351-2.351c.927-.882.551-2.438-.675-2.8a1.66 1.66 0 0 0-1.676.45l-7.054 7.051c-.905.904-.492 2.45.744 2.781a1.66 1.66 0 0 0 1.606-.429l2.352-2.352 3.526 3.528c.905.905 2.451.49 2.781-.745a1.66 1.66 0 0 0-.429-1.606zM4.206 0H1.201C.538 0 .002.536.002 1.2v3.004a1.2 1.2 0 0 0 .351.849l5.249 5.249L10.304 5.6 5.055.351A1.2 1.2 0 0 0 4.206 0"/></svg>