<svg xmlns="http://www.w3.org/2000/svg" viewBox="0 0 24 24" width="24" height="24"><path fill="currentColor" d="M6.261 7.032c1.096 0 2.061-.294 2.857-.667a11.9 11.9 0 0 0-1.39 5c-3.235.34-5.772 3-5.772 6.261C1.956 21.115 4.853 24 8.414 24c1.096 0 2.147-.303 3.089-.81a7.74 7.74 0 0 1-2.372-5.564c0-2.161.91-4.115 2.372-5.52a6.7 6.7 0 0 0-2.342-.759c.312-4.969 4.142-9.068 9.079-9.817a10.1 10.1 0 0 0-1.935 5.963v3.875c-3.22.356-5.74 3.008-5.74 6.258 0 3.489 2.897 6.374 6.457 6.374s6.457-2.885 6.457-6.374c0-3.25-2.52-5.902-5.74-6.258V7.493c0-2.376.945-4.611 2.66-6.293L21.624 0h-1.733c-3.37 0-6.423 1.346-8.632 3.52-.581-.547-2.44-2.114-4.998-2.114-3.026 0-5.097 2.211-5.198 2.305l-.542.507.542.509c.101.094 2.172 2.305 5.198 2.305m10.761 8.484c-1.187 0-2.153.946-2.153 2.11h-1.434c0-1.94 1.61-3.516 3.587-3.516zm-8.608 0c-1.187 0-2.153.946-2.153 2.11H4.826c0-1.94 1.609-3.516 3.588-3.516z"/></svg>