<svg xmlns="http://www.w3.org/2000/svg" viewBox="0 0 24 24" width="24" height="24"><path fill="currentColor" d="M13.076.454a1.5 1.5 0 0 0-2.151 0l-.959.984a1.5 1.5 0 0 1-1.484.398L7.16 1.462A1.503 1.503 0 0 0 5.297 2.54l-.34 1.331a1.5 1.5 0 0 1-1.086 1.086l-1.331.338a1.503 1.503 0 0 0-1.078 1.863l.374 1.324a1.5 1.5 0 0 1-.398 1.483l-.984.96a1.5 1.5 0 0 0 0 2.151l.984.96c.394.384.547.953.398 1.483l-.374 1.323a1.504 1.504 0 0 0 1.078 1.863l1.331.339c.533.135.949.552 1.086 1.086l.338 1.332a1.5 1.5 0 0 0 1.863 1.075l1.324-.372c.53-.151 1.1.003 1.484.398l.959.984a1.503 1.503 0 0 0 2.151 0l.96-.984a1.5 1.5 0 0 1 1.483-.398l1.323.372a1.503 1.503 0 0 0 1.863-1.075l.339-1.332a1.5 1.5 0 0 1 1.086-1.086l1.332-.338a1.503 1.503 0 0 0 1.075-1.863l-.372-1.324a1.5 1.5 0 0 1 .398-1.484l.984-.959a1.503 1.503 0 0 0 0-2.151l-.984-.959a1.5 1.5 0 0 1-.398-1.484l.372-1.322a1.5 1.5 0 0 0-1.075-1.863l-1.332-.34a1.5 1.5 0 0 1-1.086-1.086l-.338-1.331a1.503 1.503 0 0 0-1.863-1.078l-1.324.374a1.5 1.5 0 0 1-1.484-.398z"/></svg>