<svg xmlns="http://www.w3.org/2000/svg" viewBox="0 0 24 24" width="24" height="24"><path fill="currentColor" d="M4.715.001C5.425.001 6 .577 6 1.287v16.711h16.712a1.286 1.286 0 0 1 0 2.571H6v2.143a1.285 1.285 0 1 1-2.571 0v-2.143H1.287a1.285 1.285 0 0 1 0-2.571h2.142V1.287c0-.71.576-1.286 1.286-1.286m16.712 8.142a1.286 1.286 0 1 0-2.571 0v5.999a1.285 1.285 0 1 0 2.571 0zm-6.428-4.714c.71 0 1.286.576 1.286 1.286v9.427a1.285 1.285 0 0 1-2.571 0V4.715c0-.71.575-1.286 1.285-1.286m-3.856 8.142a1.287 1.287 0 0 0-2.572 0v2.571a1.285 1.285 0 0 0 2.572 0z"/></svg>