<svg xmlns="http://www.w3.org/2000/svg" viewBox="0 0 24 24" width="24" height="24"><path fill="currentColor" fill-rule="evenodd" clip-rule="evenodd" d="M9.103.703A2.4 2.4 0 0 1 10.8 0h10.8A2.4 2.4 0 0 1 24 2.4v12a1.201 1.201 0 0 1-2.048.848L18.703 12H10.8a2.4 2.4 0 0 1-2.4-2.4V2.4A2.4 2.4 0 0 1 9.103.703"/><path fill="currentColor" d="M2.4 8.4A2.4 2.4 0 0 0 0 10.8v12a1.199 1.199 0 0 0 2.048.848L5.297 20.4H13.2a2.4 2.4 0 0 0 2.4-2.4v-2.4a1.2 1.2 0 0 0-1.085-1.195L14.4 14.4l-3.6.003A4.803 4.803 0 0 1 6 9.6c0-.662-.538-1.2-1.2-1.2z"/></svg>