<svg xmlns="http://www.w3.org/2000/svg" viewBox="0 0 24 24" width="24" height="24"><path fill="currentColor" d="M20.434 3.877c.348-.29.983-.581 1.453-.581.474 0 1.12.304 1.466.593l.034.03.011.012.011.013.011.012c.289.349.58.983.58 1.453 0 .474-.331 1.149-.619 1.494l-13.223 13.22c-.348.29-.983.581-1.453.581-.474 0-1.15-.331-1.494-.619l-6.63-6.631C.292 13.105 0 12.47 0 12c0-.473.304-1.12.593-1.465l.03-.035.012-.01.013-.012.011-.01c.349-.29.984-.581 1.454-.581.474 0 1.149.331 1.493.619l5.099 5.098z"/></svg>