<svg xmlns="http://www.w3.org/2000/svg" viewBox="0 0 24 24" width="24" height="24"><path fill="currentColor" d="M11.963 23.998q-4.608 0-8.027-3.056-3.42-3.055-3.899-7.639H3.06q.466 3.35 2.99 5.54 2.529 2.19 5.913 2.191 3.775 0 6.404-2.63t2.629-6.405q0-3.774-2.629-6.404-2.629-2.628-6.405-2.629a8.7 8.7 0 0 0-4.049.977 9.4 9.4 0 0 0-3.206 2.708h3.368v2.741H.041V1.374h2.726v2.947a11.7 11.7 0 0 1 4.104-3.196A11.84 11.84 0 0 1 11.965 0q2.489 0 4.677.948a12.2 12.2 0 0 1 3.806 2.57 12.2 12.2 0 0 1 2.567 3.806q.949 2.186.948 4.677 0 2.492-.948 4.676a12.2 12.2 0 0 1-2.567 3.808 12.2 12.2 0 0 1-3.807 2.567 11.6 11.6 0 0 1-4.677.948m3.613-6.461-4.954-4.954V5.48h2.723v5.998l4.15 4.141z"/></svg>