<svg xmlns="http://www.w3.org/2000/svg" viewBox="0 0 24 24" width="24" height="24"><path fill="currentColor" d="M12.005 9.122 20.559.569a2.14 2.14 0 0 1 1.816-.486c.72.186 1.276.746 1.466 1.365.189.618.037 1.4-.456 1.958l-8.548 8.548 8.542 8.541c.527.518.747 1.343.549 2.052-.238.706-.835 1.221-1.465 1.366s-1.387-.049-1.911-.58l-8.547-8.548-8.542 8.542a2.14 2.14 0 0 1-2.051.55c-.706-.238-1.22-.836-1.366-1.466-.145-.63.05-1.387.58-1.91l8.547-8.547L.62 3.4a2.15 2.15 0 0 1-.486-1.816C.322.864.882.308 1.5.119S2.899.082 3.457.575z"/></svg>