<svg xmlns="http://www.w3.org/2000/svg" viewBox="0 0 24 24" width="24" height="24"><path fill="currentColor" d="M7.994 7.834c-.675.434-2.041 1.335-2.104 1.465s-.359 2.298-.499 3.365l1.657 1.873h1.998c.596-.534 1.788-1.629 1.788-1.737s.193-1.963.29-2.877L9.703 7.834zm8.011 0c.675.434 2.041 1.335 2.104 1.465s.359 2.298.5 3.365l-1.657 1.873h-1.999c-.595-.534-1.788-1.629-1.788-1.737s-.193-1.963-.289-2.877l1.42-2.089z"/><path fill="currentColor" d="m11.883 1 .117.008.117-.008 2.362.162L14.797 0l2.389.46.106 1.405.425.351-.186 1.973 1.619 1.757.637 2.432h.982l-.478 3.433L19.787 16v2.378l-.637 1.244v.919l-.903 2.567-.716.406-.849.486H7.318l-.85-.486-.716-.406-.903-2.567v-.919l-.637-1.244V16l-.504-4.189-.477-3.433h.981l.637-2.432 1.619-1.757-.185-1.973.425-.351L6.814.46 9.202 0l.319 1.162zm1.745 20.849.951-1.14-.249-1.577-.604-1.044-1.235-.502h-.982l-1.235.502-.605 1.044-.248 1.577.951 1.14 1.628.462zM12.701 16l1.725.703 1.512 2.135-.318 2.351-.271.51c.15.118.456.213.66.278a1 1 0 0 1 .203.073l.47-.588 1.847-3.57.611-5.784-1.088-5.54-.946-1.433-1.884-.648H8.778l-1.885.648-.945 1.433-1.088 5.54.61 5.784 1.848 3.57.47.588a1 1 0 0 1 .202-.073c.205-.065.51-.16.661-.278l-.271-.51-.319-2.351 1.513-2.135L11.299 16z"/></svg>