<svg xmlns="http://www.w3.org/2000/svg" viewBox="0 0 24 24" width="24" height="24"><path fill="currentColor" d="m14.723.643 8.208 1.132c.859.126 1.314 1.056.934 1.835l-4.041 7.216c-.48.853-1.743.829-2.172-.051l-1.011-2.011-14.597 6.159c-.758.302-1.617-.051-1.92-.779a1.44 1.44 0 0 1 .606-1.836l13.74-7.893-1.009-2.011c-.454-.88.278-1.886 1.263-1.761m4.015 13.046c-.328 0-.631-.051-.934-.126v8.673c0 .629.505 1.131 1.135 1.131h3.764c.631 0 1.135-.502 1.135-1.131V8.261l-2.044 3.645c-.632 1.079-1.819 1.784-3.057 1.784m-8.612 9.652a1.13 1.13 0 0 1-1.137-1.13v-7.818l6.036-2.539V22.21a1.13 1.13 0 0 1-1.137 1.132zm-9.95-6.309a3.6 3.6 0 0 0 1.287.226 3.5 3.5 0 0 0 1.44-.301l3.309-1.383v6.637a1.13 1.13 0 0 1-1.137 1.131H1.312a1.13 1.13 0 0 1-1.136-1.131z"/></svg>