<svg xmlns="http://www.w3.org/2000/svg" viewBox="0 0 24 24" width="24" height="24"><path fill="currentColor" d="M2.667 0h18.666A2.666 2.666 0 0 1 24 2.667v18.666A2.667 2.667 0 0 1 21.333 24H2.667A2.67 2.67 0 0 1 0 21.333V2.667A2.667 2.667 0 0 1 2.667 0m2.666 2.667a2.666 2.666 0 1 0 0 5.332 2.666 2.666 0 0 0 0-5.332M18.667 16a2.667 2.667 0 1 0 0 5.334 2.667 2.667 0 0 0 0-5.334m0-6.667a2.668 2.668 0 1 0 .001 5.335 2.668 2.668 0 0 0-.001-5.335m0-6.666a2.667 2.667 0 1 0 0 5.333 2.667 2.667 0 0 0 0-5.333M5.333 9.333a2.667 2.667 0 1 0 .001 5.333 2.667 2.667 0 0 0-.001-5.333m0 6.667a2.666 2.666 0 1 0 0 5.332 2.666 2.666 0 0 0 0-5.332"/></svg>