<svg xmlns="http://www.w3.org/2000/svg" viewBox="0 0 24 24" width="24" height="24"><path fill="currentColor" fill-rule="evenodd" clip-rule="evenodd" d="M0 1.778A1.776 1.776 0 0 1 1.778 0h11.444c.233 0 .464.045.68.134s.411.222.577.386A1.77 1.77 0 0 1 15 1.778v5.001h-4.221A4 4 0 0 0 7.95 7.95a4 4 0 0 0-1.171 2.828V15H1.778A1.78 1.78 0 0 1 0 13.222zM4.536 6.22h-.065A1.8 1.8 0 0 1 2.67 4.419v-.023a1.776 1.776 0 0 1 1.778-1.778h.024a1.81 1.81 0 0 1 1.684 1.085 1.8 1.8 0 0 1 .023 1.378 1.8 1.8 0 0 1-.38.593 1.8 1.8 0 0 1-1.266.548zM10.779 9c-.471 0-.924.188-1.258.521a1.78 1.78 0 0 0-.519 1.257v11.444A1.774 1.774 0 0 0 10.779 24h11.443A1.776 1.776 0 0 0 24 22.222V10.778A1.78 1.78 0 0 0 22.222 9zm8.123 6.505a1.775 1.775 0 0 0 1.778-1.778 1.78 1.78 0 0 0-3.556 0 1.776 1.776 0 0 0 1.778 1.778m-3.023 3.769a1.775 1.775 0 0 1-1.778 1.778 1.776 1.776 0 0 1-1.257-3.035 1.78 1.78 0 0 1 2.515 0c.334.334.52.787.52 1.257"/></svg>