<svg xmlns="http://www.w3.org/2000/svg" viewBox="0 0 24 24" width="24" height="24"><path fill="currentColor" d="M16.029 15.382a2.31 2.31 0 0 1-2.161-2.43 2.31 2.31 0 0 1 2.161-2.43 2.27 2.27 0 0 1 2.167 2.43 2.307 2.307 0 0 1-2.167 2.43m-7.989 0a2.307 2.307 0 0 1-2.16-2.43 2.307 2.307 0 0 1 2.16-2.43 2.27 2.27 0 0 1 2.167 2.43v.135a2.31 2.31 0 0 1-2.167 2.295M20.357 4.399a19.3 19.3 0 0 0-4.783-1.494l-.103-.025h-.032l-.051.025-.59 1.148-.026.083a19.3 19.3 0 0 0-5.61 0l.109-.025-.641-1.315.026.051-.051-.019a19.3 19.3 0 0 0-5.021 1.577l.128-.057-.025.025A20.1 20.1 0 0 0 0 16.049q0 1.096.109 2.167v-.083l.026.051a18.6 18.6 0 0 0 5.854 2.994l.134.026h.019l.058-.026q.642-.935 1.199-1.923l.026-.077a.084.084 0 0 0-.051-.109 25 25 0 0 1-1.95-.936l.052.025-.026-.051.026-.051.378-.295h.083a13.92 13.92 0 0 0 12.15-.058l-.083.032h.083l.372.295.026.051-.026.052q-.855.507-1.789.852l-.077.032-.057.077v.026q.59 1.148 1.256 2.033l-.025-.052.077.026a18.6 18.6 0 0 0 6.065-3.071l-.051.025.025-.057A19.88 19.88 0 0 0 20.28 4.296l.051.052-.025-.026z"/></svg>