<svg xmlns="http://www.w3.org/2000/svg" viewBox="0 0 24 24" width="24" height="24"><path fill="currentColor" d="M18.48 10.56a1.284 1.284 0 0 0-1.817 0l-3.377 3.377V1.287a1.285 1.285 0 0 0-2.572 0v12.65L7.337 10.56a1.286 1.286 0 0 0-1.817 1.817l5.571 5.571.909.909.909-.908 5.571-5.571a1.286 1.286 0 0 0 0-1.818M2.572 15.001a1.285 1.285 0 1 0-2.571 0v5.571A3.43 3.43 0 0 0 3.429 24h17.142a3.43 3.43 0 0 0 3.428-3.428v-5.571a1.285 1.285 0 1 0-2.571 0v5.571a.857.857 0 0 1-.857.857H3.429a.857.857 0 0 1-.857-.857z"/></svg>