<svg xmlns="http://www.w3.org/2000/svg" viewBox="0 0 24 24" width="24" height="24"><path fill="currentColor" fill-rule="evenodd" clip-rule="evenodd" d="M22.167 3.393a1.125 1.125 0 0 0-1.591-1.591l-2.93 2.93C16.062 3.715 14.161 2.967 12 2.967c-3.742 0-6.702 2.235-8.642 4.291a22 22 0 0 0-3.064 4.153l-.012.021-.004.007v.003l.994.527-.994-.525-.278.525.278.525.994-.525-.994.525v.003l.003.003.006.01.018.035q.023.044.069.123.566.98 1.23 1.893c.705.971 1.695 2.171 2.941 3.271l-2.718 2.719a1.125 1.125 0 1 0 1.591 1.59zM6.141 16.236l1.981-1.981c-1.762-2.982.366-6.756 3.83-6.79a4.5 4.5 0 0 1 2.335.625l1.722-1.721C14.797 5.667 13.454 5.217 12 5.217c-2.821 0-5.226 1.702-7.007 3.586a19.8 19.8 0 0 0-2.421 3.166c.195.319.48.762.85 1.269a18 18 0 0 0 2.718 2.998zm14.134-7.751a1.124 1.124 0 0 1 1.579.183c.671.846 1.352 1.8 1.868 2.776l.278.525-.278.525-.994-.525.994.526-.001.003-.005.008-.012.021q-.362.67-.795 1.298a22 22 0 0 1-2.265 2.855c-1.942 2.055-4.902 4.291-8.644 4.291a10.5 10.5 0 0 1-1.532-.12l-.03-.003-.009-.002h-.003l.18-1.111-.18 1.11a1.126 1.126 0 0 1 .359-2.221h.003l.016.002.353.045c.237.025.543.049.843.049 2.821 0 5.226-1.701 7.007-3.585a19.5 19.5 0 0 0 2.424-3.174 18 18 0 0 0-1.339-1.895 1.126 1.126 0 0 1 .181-1.581z"/></svg>