<svg xmlns="http://www.w3.org/2000/svg" viewBox="0 0 24 24" width="24" height="24"><path fill="currentColor" fill-rule="evenodd" clip-rule="evenodd" d="M0 12s4.5-9 12-9 12 9 12 9-4.5 9-12 9-12-9-12-9m2.715.195L2.595 12l.123-.195a20.5 20.5 0 0 1 2.13-2.784C6.741 6.953 9.18 5.25 12 5.25c2.817 0 5.259 1.703 7.155 3.771.84.923 1.593 1.919 2.25 2.979a21 21 0 0 1-2.253 2.979C17.259 17.048 14.82 18.75 12 18.75c-2.817 0-5.259-1.702-7.155-3.771a21 21 0 0 1-2.13-2.784M16.5 12c0 3.464-3.751 5.628-6.75 3.894-3-1.732-2.998-6.063.002-7.794a4.5 4.5 0 0 1 3.573-.402c-1.578.714-1.791 2.868-.383 3.878a2.248 2.248 0 0 0 3.36-.9c.132.429.2.874.198 1.324"/></svg>