<svg xmlns="http://www.w3.org/2000/svg" viewBox="0 0 24 24" width="24" height="24"><path fill="currentColor" d="M19.562 10.933c-.307-.4-.68-.746-1.028-1.092-.892-.8-1.906-1.374-2.76-2.214C13.788 5.68 13.348 2.466 14.614 0c-1.266.306-2.372 1-3.32 1.76-3.453 2.773-4.813 7.667-3.186 11.867.053.134.106.266.106.44 0 .294-.2.56-.466.666-.307.134-.627.054-.881-.16a.8.8 0 0 1-.186-.226c-1.507-1.906-1.747-4.64-.734-6.827-2.226 1.813-3.44 4.881-3.266 7.773.08.668.16 1.334.386 2.001.187.8.547 1.6.947 2.307 1.44 2.307 3.934 3.96 6.614 4.293 2.854.36 5.906-.16 8.094-2.133 2.44-2.214 3.293-5.76 2.04-8.8l-.174-.348c-.28-.612-1.026-1.68-1.026-1.68m-4.214 8.401c-.374.32-.986.667-1.466.8-1.494.534-2.988-.213-3.868-1.093 1.587-.374 2.534-1.547 2.814-2.734.226-1.066-.2-1.946-.374-2.974-.16-.986-.132-1.826.228-2.746.252.506.52 1.014.84 1.414 1.026 1.332 2.64 1.92 2.986 3.733.054.187.08.373.08.573.04 1.094-.44 2.294-1.24 3.027"/></svg>