<svg xmlns="http://www.w3.org/2000/svg" viewBox="0 0 24 24" width="24" height="24"><path fill="currentColor" fill-rule="evenodd" clip-rule="evenodd" d="M3.353 19.023 6.588 8.064c-.112-.248-.301-.86-.167-1.319.167-.574.334-1.147.334-1.434 0-.288.502-.976.893-1.033.312-.046 1.059-.019 1.394 0 .242-.153.77-.7.948-1.664.156-.843-.179-.984-.433-1.09-.109-.046-.203-.086-.236-.172-.037-.096-.124-.185-.209-.272-.169-.174-.33-.34-.07-.531.107-.079.19-.176.266-.265.202-.237.364-.428.85-.137.329.198.374.104.422.005.05-.102.101-.209.47-.005.278.154.787.275 1.358.41.917.217 1.996.472 2.546.967-.39-.271.055.631.278.574.123-.032.329-.27.518-.488.156-.181.3-.347.375-.373a1.4 1.4 0 0 0 .226-.133c.24-.158.607-.4 1.001-.44l.254-.029c.383-.043.592-.067.917.029.114.033.223.056.332.08.267.058.539.118.896.321.501.287.78.631 1.059 1.033l.064.092c.255.364.49.702.717 1.285.112.287.335 1.778.167 2.581-.093.536-.479 1.756-1.283 2.352q-.176.132-.325.248h-.001c-.75.574-1.092.836-2.518.785-.669-.024-2.027-.937-2.231-1.377l-3.793 9.524c-.576.172-1.74.528-1.784.574s-.391.019-.558 0a.46.46 0 0 0-.223.401c0 .287-.056.976-.502 1.664-.019.593-.078 1.859-.168 2.181a6 6 0 0 0-.066.28c-.083.375-.183.825-.491 1.096-.312.276-2.138.23-3.012.173-.483-.173-1.684-.792-2.621-1.894.037-.402.167-1.377.39-2.065.279-.861.39-.975.781-.975M9.6 17.187l2.733-7.402.892-.401.669-1.721-.056-.689.223-.057.447.918-3.626 9.237zm.055-4.934c0 .601-.474 1.089-1.059 1.089-.586 0-1.06-.488-1.06-1.089 0-.603.474-1.091 1.06-1.091.585 0 1.059.488 1.059 1.091m-3.679-.154c.186.051.459-.379.611-.96.151-.582.124-1.095-.062-1.146s-.459.379-.611.96c-.152.582-.124 1.095.062 1.146m5.037.59c-.131.503-.363.877-.519.834-.155-.043-.175-.486-.043-.99.131-.503.363-.877.519-.834.155.042.175.486.043.99M7.068 16.51c.422.192.899.034 1.066-.353.166-.386-.042-.855-.465-1.047-.422-.193-.899-.035-1.066.351-.165.387.042.856.465 1.049m-1.597-1.835c-.088.413-.282.72-.433.686s-.203-.396-.115-.809.282-.72.433-.686.203.396.115.809m3.834 2.26c.115.037.308-.26.431-.663s.13-.76.015-.797-.307.26-.43.663-.13.76-.016.797m-4.73 1.124c-.079.382-.266.665-.418.631-.151-.032-.21-.37-.13-.752s.266-.665.418-.632.21.37.13.753m3.71 1.865c.106.031.276-.249.38-.625s.102-.706-.003-.737c-.106-.031-.276.249-.38.625s-.103.706.003.737m-1.272-.461c-.173.368-.651.498-1.066.291s-.613-.673-.44-1.041.65-.498 1.066-.291.613.673.44 1.041m11.12-11.169c1.54 0 2.789-1.49 2.789-3.328s-1.249-3.328-2.789-3.328-2.789 1.491-2.789 3.328c0 1.838 1.249 3.328 2.789 3.328"/></svg>