<svg xmlns="http://www.w3.org/2000/svg" viewBox="0 0 24 24" width="24" height="24"><path fill="currentColor" d="M23.355 11.468c-1.061-4.795-2.657-7.354-5.024-8.053a5.4 5.4 0 0 0-1.533-.216c-.685 0-1.282.167-1.913.344-.762.214-1.626.456-2.887.456-1.26 0-2.125-.242-2.888-.456-.632-.177-1.228-.344-1.912-.344a5.8 5.8 0 0 0-1.586.216c-2.355.696-3.95 3.255-5.026 8.051-1.157 5.16-.588 8.419 1.597 9.174.298.106.614.16.932.161 1.497 0 2.697-1.247 3.517-2.266.927-1.156 2.011-1.741 5.367-1.741 2.998 0 4.238.406 5.31 1.741.674.839 1.31 1.426 1.945 1.795.845.49 1.689.6 2.508.319 1.29-.441 2.031-1.606 2.2-3.463.128-1.424-.069-3.295-.606-5.718m-13.758-.269h-1.6v1.6a.8.8 0 1 1-1.6 0v-1.6h-1.6a.8.8 0 1 1 0-1.6h1.6v-1.6a.8.8 0 1 1 1.6 0v1.6h1.6a.8.8 0 1 1 0 1.6m4.201.2a1 1 0 1 1 0-2 1 1 0 0 1 0 2M16 13.6a1.001 1.001 0 1 1 1-.997 1 1 0 0 1-1.002.996m0-4.4a1.001 1.001 0 1 1 0-2.002 1.001 1.001 0 0 1 0 2.002m2.201 2.2a1 1 0 1 1 0-2 1 1 0 0 1 0 2"/></svg>