<svg xmlns="http://www.w3.org/2000/svg" viewBox="0 0 24 24" width="24" height="24"><path fill="none" d="M8.998 5.988h2.144V3.844c0-1.65-1.786-2.682-3.215-1.857-1.43.825-1.43 2.888 0 3.714.326.188.695.287 1.071.287m8.148-2.144a2.145 2.145 0 0 0-4.288 0v2.144h2.144a2.143 2.143 0 0 0 2.144-2.144"/><path fill="currentColor" d="M2.566 20.568a3.43 3.43 0 0 0 3.43 3.431h4.933a.214.214 0 0 0 .214-.215v-9.862a.214.214 0 0 0-.214-.215H2.995a.43.43 0 0 0-.429.429zm8.576-8.791V5.988h1.716v5.79c0 .119.096.215.215.215h7.505a2.574 2.574 0 0 0 2.572-2.574v-.858a2.573 2.573 0 0 0-2.573-2.573h-2.173a.108.108 0 0 1-.092-.161C19.826 3.27 18.005.034 15.034.002A3.86 3.86 0 0 0 12 1.422C10.122-.881 6.456-.288 5.402 2.49a3.86 3.86 0 0 0 .286 3.337.108.108 0 0 1-.092.161H3.423A2.574 2.574 0 0 0 .85 8.561v.858a2.58 2.58 0 0 0 2.573 2.573h7.506a.214.214 0 0 0 .214-.215m1.716-7.934c0-1.65 1.787-2.682 3.217-1.857 1.429.825 1.429 2.888 0 3.714a2.16 2.16 0 0 1-1.073.287h-2.144zM8.846 1.704a2.144 2.144 0 0 1 2.296 2.14v2.144H8.998c-1.65-.002-2.679-1.791-1.851-3.219a2.14 2.14 0 0 1 1.698-1.064zm4.227 22.295h4.932a3.43 3.43 0 0 0 3.43-3.431v-6.432a.43.43 0 0 0-.428-.429h-7.934a.215.215 0 0 0-.215.215v9.863c0 .119.096.215.215.215"/></svg>