<svg xmlns="http://www.w3.org/2000/svg" viewBox="0 0 24 24" width="24" height="24"><path fill="currentColor" d="M13.972 14.724c4.151 0 7.528-3.303 7.528-7.363C21.5 3.303 18.123 0 13.972 0 9.82 0 6.444 3.303 6.444 7.361c0 4.06 3.376 7.363 7.528 7.363m-2.42-5.065a.74.74 0 0 1 1.003-.203c.488.309.672.337 1.316.333a1.06 1.06 0 0 0 1.065-.878c.036-.204.049-.704-.588-.923-.749-.256-1.515-.549-2.047-.955s-.777-1.105-.637-1.826a2.1 2.1 0 0 1 1.467-1.624l.02-.006v-.266c0-.388.325-.703.725-.703s.724.315.724.703v.222c.492.114.836.332.975.434a.686.686 0 0 1 .146.982.74.74 0 0 1-1.013.143c-.149-.108-.559-.339-1.159-.164-.35.103-.442.439-.461.539-.039.197.004.382.107.46.369.281 1.034.53 1.636.736 1.109.38 1.725 1.377 1.534 2.481a2.47 2.47 0 0 1-1.765 1.949v.32a.714.714 0 0 1-.724.703.715.715 0 0 1-.725-.703v-.249c-.468-.056-.862-.197-1.388-.532a.69.69 0 0 1-.211-.973m-9.176 7.426H.724c-.4 0-.724.315-.724.703v5.508c0 .388.324.703.724.703h1.652zm16.488-.049c1.357-1.317 3.567-1.317 4.924 0a.69.69 0 0 1 0 .995l-5.212 5.056a3.24 3.24 0 0 1-2.272.913l-12.479-.004v-6.909l.01.001c.08-.924.748-1.724 1.676-1.985a7.9 7.9 0 0 1 2.645-.279c1.015.065 1.883.463 2.721.847v.001c.802.367 1.556.712 2.344.712h2.408c.402 0 .726.316.726.705q0 .305-.054.596c-.152.846-.917 1.456-1.801 1.456h-4.396a.713.713 0 0 0-.724.738c.017.378.353.669.744.669h4.325c.508 0 .996-.196 1.355-.544l.889-.863z"/></svg>