<svg xmlns="http://www.w3.org/2000/svg" viewBox="0 0 24 24" width="24" height="24"><path fill="currentColor" d="M21.026 2.984q.262.087.528.167c1.458.444 1.458.444 1.79.885.097.281.14.534.172.829q.067.264.14.529l.122.517.064.264c.105.448.179.861.153 1.321-.771.272-1.547.488-2.341.681l-.331.081-.798.196c.168-.503.523-.621.965-.86l.24-.134.59-.322-.12-1.316-.448-.083c-.614-.133-1.16-.372-1.729-.632-.459-.17-.459-.17-.933-.123-.34.291-.609.647-.892.992-.464.542-.464.542-.926.665l-.335.018-.359.12c-.045.882.103 1.604.366 2.445l.1.359c.205.694.205.694.764 1.117.502.03.847-.047 1.327-.198 1.068-.302 2.306-.533 3.379-.139.359.25.492.469.592.893.089 1.364-.588 2.471-1.454 3.46-3.435 3.757-9.49 5.322-14.286 6.418l-.281.066c-1.214.277-2.424.337-3.667.36l-.445.015c-.984.002-1.664-.158-2.426-.8-.468-.521-.56-.976-.546-1.66l.004-.257c.03-.719.18-1.149.662-1.672l.19-.235c1.028-1.167 2.545-1.734 4.009-2.137.546-.157.546-.157.931-.566l.134-.292c.408-.358.408-.358.717-.358l.035-.292c.106-.53.286-1.008.482-1.51l.121-.315.256-.659q.193-.495.381-.991c1.592-4.125 1.592-4.125 3.348-4.946a21 21 0 0 1 1.531-.559l1.402-.49a47 47 0 0 0 1.773-.656l.44-.172q.403-.158.805-.32c1.394-.535 2.435-.16 3.804.296m-5.009.692q-.324.15-.65.298-.64.293-1.274.6c-.419.2-.841.379-1.274.545l-.315.123q-.293.112-.589.216c-.474.183-.754.335-.993.794q-.108.261-.206.527l-.116.286a45 45 0 0 0-.363.951l-.132.351-.414 1.103-.278.741-.623 1.663-.467 1.245c2.812-.056 5.525-1.168 8.015-2.393a4 4 0 0 0-.318-1.072c-.478-1.095-.853-2.028-.519-3.234.136-.284.275-.475.478-.718v-.239l.22.086c.345.106.615.162.977.153.46-.256.816-.595 1.196-.957.58-.497 1.015-.764 1.795-.718 1.166.318 2.142.862 2.759 1.926l.112.228c.171-.343.047-.569-.067-.918l-.09-.264-.075-.261c-.134-.385-.243-.645-.612-.842l-.293-.105a21 21 0 0 1-1.259-.506c-1.831-.746-2.9-.465-4.625.391m2.834 7.529c-.007.242-.007.242.119.479.297.211.297.211.598.358-.054 1.259-.928 2.261-1.794 3.111-.427.374-.869.726-1.316 1.076l-.68.546-.516.411.119.24c2.625-.653 5.471-2.35 6.939-4.666.264-.465.345-.907.239-1.435-.26-.322-.468-.533-.837-.718-.934-.077-2.163-.11-2.871.598m-2.999.277c-2.401 1.218-5.47 2.329-8.187 2.22-.553-.022-.553-.022-1.017.292-.127.201-.127.201-.239.441l-.167.307c-.344.683-.516 1.202-.431 1.966.195.195.401.149.673.157 2.946-.035 5.918-1.021 8.538-2.31l.28-.136q.42-.206.834-.418l.254-.126c.558-.293.909-.59 1.264-1.115.076-.283.076-.283.045-.553l-.012-.267a5 5 0 0 0-.152-.735c-.695-.161-1.078-.057-1.683.277"/></svg>