<svg xmlns="http://www.w3.org/2000/svg" viewBox="0 0 24 24" width="24" height="24"><path fill="currentColor" d="M17.4 1c-2.088 0-4.092 1.059-5.4 2.734C10.692 2.059 8.688 1 6.6 1 2.904 1 0 4.165 0 8.193c0 4.944 4.08 6.973 10.26 13.094L12 23l1.74-1.726C19.92 15.166 24 13.137 24 8.193 24 4.165 21.096 1 17.4 1m-5.28 18.338-.12.131-.12-.131C6.168 13.701 2.4 11.973 2.4 8.193c0-2.615 1.8-4.577 4.2-4.577 1.848 0 3.648 1.295 4.284 3.086h2.244c.624-1.791 2.424-3.086 4.272-3.086 2.4 0 4.2 1.962 4.2 4.577 0 3.78-3.768 5.508-9.48 11.145"/></svg>