<svg xmlns="http://www.w3.org/2000/svg" viewBox="0 0 24 24" width="24" height="24"><path fill="currentColor" fill-rule="evenodd" clip-rule="evenodd" d="M21.735 11.999c0 7.495-8.113 12.178-14.603 8.432a9.74 9.74 0 0 1-4.867-8.432c0-7.493 8.113-12.178 14.603-8.43a9.73 9.73 0 0 1 4.867 8.43m2.247 0c0 9.225-9.986 14.99-17.973 10.378A11.98 11.98 0 0 1 .018 11.999c0-9.223 9.986-14.988 17.973-10.376a11.98 11.98 0 0 1 5.991 10.376M9.379 15.744c-.864 0-1.405.936-.974 1.685.201.347.573.561.974.561h5.242a1.123 1.123 0 0 0 0-2.246h-1.498v-5.242h-2.621a1.123 1.123 0 0 0 0 2.246h.375v2.996zM12 9.004a1.498 1.498 0 1 0 0-2.996 1.498 1.498 0 0 0 0 2.996"/></svg>