<svg xmlns="http://www.w3.org/2000/svg" viewBox="0 0 24 24" width="24" height="24"><path fill="currentColor" d="m14.846 4.514.795 2.384-4.385 4.364a1.133 1.133 0 0 0 0 1.627 1.165 1.165 0 0 0 1.626 0l4.367-4.381 2.385.797c.353.106.743.018 1.006-.249l3.077-3.092a1.018 1.018 0 0 0-.387-1.661l-2.703-.901-.901-2.704a1.004 1.004 0 0 0-1.663-.389l-3.094 3.073c-.183.185-.29.43-.3.689 0 .089.016.212.035.3zm-2.758 2.56c.353 0 .724.036 1.06.108l.707-.724-.512-1.503c-.018-.035-.018-.089-.036-.124a6.3 6.3 0 0 0-1.272-.141 7.33 7.33 0 0 0-7.354 7.331 7.325 7.325 0 0 0 7.33 7.336c4.047.001 7.335-3.283 7.337-7.348 0-.443-.069-.866-.14-1.291-.036-.018-.089-.018-.125-.018l-1.502-.512-.724.706q.108.504.107 1.06c-.001 2.757-2.265 5.018-5.04 5.017a5.045 5.045 0 0 1-5.033-5.039c0-2.774 2.245-5.035 5.02-5.034zm11.416 1.401-1.733 1.714-.212.158c.089.547.159 1.131.158 1.713-.001 5.321-4.35 9.647-9.67 9.647-5.336-.002-9.665-4.351-9.663-9.671.002-5.336 4.332-9.664 9.653-9.662.584 0 1.166.052 1.731.159.052-.07.089-.159.159-.212L15.641.59C14.654.273 13.045.024 12.02.023h-.018C5.375.022.001 5.374 0 12.001c-.002 6.609 5.351 11.984 11.978 11.986 6.609.002 11.984-5.369 11.985-11.996 0-1.272-.211-2.492-.563-3.623z"/></svg>