<svg xmlns="http://www.w3.org/2000/svg" viewBox="0 0 24 24" width="24" height="24"><path fill="currentColor" d="M4.105 14.053a1.716 1.716 0 0 1 2.07 0l3.418 2.587c.576.437.818 1.189.602 1.878l-1.333 4.273a1.72 1.72 0 0 1-1.359 1.182l-.276.021H3.053c-.647 0-1.24-.367-1.53-.946l-.103-.257-1.336-4.273a1.71 1.71 0 0 1 .601-1.878zm13.216.606c.587-1.18 2.234-1.28 2.962-.181q.058.087.105.181l3.428 6.854a1.713 1.713 0 0 1-1.297 2.467l-.235.014h-6.86l-.235-.016a1.712 1.712 0 0 1-1.299-2.464zM2.717 18.326l.967 3.098h2.913l.964-3.1-2.421-1.832zm14.095 3.098h4.084l-2.042-4.083zM8.742.015A1.716 1.716 0 0 1 10.28 1.72v6.853l-.008.177a1.71 1.71 0 0 1-1.529 1.528l-.176.009H1.713A1.71 1.71 0 0 1 .009 8.75L0 8.573V1.72C0 .774.766.006 1.713.006h6.854zM18.847.006c3.956 0 6.431 4.284 4.452 7.711a5.14 5.14 0 0 1-4.452 2.57c-3.958 0-6.43-4.284-4.451-7.711a5.14 5.14 0 0 1 4.451-2.57M2.57 7.717h5.14V2.576H2.57zm16.277-5.141c-1.979 0-3.216 2.142-2.225 3.856a2.57 2.57 0 0 0 2.225 1.285c1.977 0 3.214-2.142 2.226-3.856a2.57 2.57 0 0 0-2.226-1.285"/></svg>