<svg xmlns="http://www.w3.org/2000/svg" viewBox="0 0 24 24" width="24" height="24"><path fill="currentColor" d="M15.384 3.541c1.953-1.955 5.289-1.061 6.005 1.607a3.59 3.59 0 0 1-.929 3.469l-1.122 1.118a1.294 1.294 0 0 0 1.832 1.831l1.12-1.119c3.281-3.445 1.604-9.149-3.019-10.27a6.18 6.18 0 0 0-5.717 1.533L8.977 6.282a6.176 6.176 0 0 0 0 8.737 1.295 1.295 0 0 0 1.832-1.831 3.585 3.585 0 0 1 0-5.076l4.577-4.571zm-.259 5.328a1.294 1.294 0 0 0-1.825 1.837 3.58 3.58 0 0 1 .007 5.079l-4.582 4.57c-1.958 1.953-5.295 1.057-6.008-1.614a3.59 3.59 0 0 1 .932-3.469l1.117-1.117a1.295 1.295 0 0 0-1.83-1.83l-1.119 1.117C-1.55 16.804-.015 22.55 4.581 23.784a6.18 6.18 0 0 0 5.972-1.595l4.583-4.57a6.174 6.174 0 0 0-.012-8.75z"/></svg>