<svg xmlns="http://www.w3.org/2000/svg" viewBox="0 0 24 24" width="24" height="24"><path fill="currentColor" d="M7.19 4.916a1.124 1.124 0 0 0-1.588-1.588L2.651 6.279l-.704-.704A1.124 1.124 0 0 0 .359 7.163l1.498 1.498a1.126 1.126 0 0 0 1.588 0zm1.828.704c0-.62.502-1.124 1.123-1.124h12.734a1.124 1.124 0 0 1 0 2.247H10.141A1.123 1.123 0 0 1 9.018 5.62m0 6.367c0-.621.502-1.124 1.123-1.124h12.734a1.123 1.123 0 1 1 0 2.247H10.141a1.123 1.123 0 0 1-1.123-1.123m1.123 5.243a1.123 1.123 0 1 0 0 2.247h12.734a1.123 1.123 0 1 0 0-2.247zM7.19 15.312c.438.439.438 1.15 0 1.588l-3.745 3.746a1.126 1.126 0 0 1-1.588 0L.359 19.148a1.123 1.123 0 1 1 1.588-1.588l.704.704 2.951-2.952a1.126 1.126 0 0 1 1.588 0"/></svg>