<svg xmlns="http://www.w3.org/2000/svg" viewBox="0 0 24 24" width="24" height="24"><path fill="currentColor" d="M1.717 6.429a1.714 1.714 0 1 0 0-3.428c-1.32 0-2.145 1.43-1.485 2.571.305.532.871.857 1.485.857M8.144 3.43a1.285 1.285 0 1 0 0 2.571h14.569a1.285 1.285 0 0 0 0-2.571zm0 7.284a1.286 1.286 0 0 0 0 2.572h14.569a1.286 1.286 0 0 0 0-2.572zm-1.285 8.571c0-.71.576-1.286 1.285-1.286h14.569a1.285 1.285 0 0 1 0 2.571H8.144a1.286 1.286 0 0 1-1.285-1.285M3.431 12c0 1.32-1.43 2.144-2.571 1.484A1.713 1.713 0 1 1 3.431 12m-1.714 8.999c1.319 0 2.144-1.428 1.484-2.571a1.72 1.72 0 0 0-1.484-.857c-1.32 0-2.145 1.429-1.485 2.571a1.71 1.71 0 0 0 1.485.857"/></svg>