<svg xmlns="http://www.w3.org/2000/svg" viewBox="0 0 24 24" width="24" height="24"><path fill="currentColor" d="M0 2.401h3.2V8.8H1.6V4.001H0zm2.619 14.411H0v-1.599h2.619c1.702.001 2.765 1.844 1.912 3.318a2.2 2.2 0 0 1-.627.691l-1.088.777H4.8v1.6H0v-1.555l2.974-2.124a.61.61 0 0 0-.355-1.109zm4.98-12.811a1.2 1.2 0 0 0 0 2.399h15.199a1.2 1.2 0 0 0 0-2.399zm0 6.799a1.2 1.2 0 0 0 0 2.4h15.199a1.2 1.2 0 0 0 0-2.4zm-1.2 7.999a1.2 1.2 0 0 1 1.2-1.199h15.199a1.2 1.2 0 0 1 0 2.399H7.599a1.2 1.2 0 0 1-1.2-1.2"/></svg>