<svg xmlns="http://www.w3.org/2000/svg" viewBox="0 0 24 24" width="24" height="24"><path fill="currentColor" d="M12 2.694a9.22 9.22 0 0 0-6.581 2.725A9.22 9.22 0 0 0 2.694 12c0 .354-.164.722-.395.952-.23.231-.598.395-.952.395s-.722-.164-.952-.395A1.4 1.4 0 0 1 0 12c0-3.297 1.356-6.328 3.514-8.486A12.03 12.03 0 0 1 12 0c3.296 0 6.327 1.356 8.485 3.514A12.03 12.03 0 0 1 24 12c0 3.296-1.357 6.327-3.515 8.485A12.03 12.03 0 0 1 12 24c-.354 0-.722-.164-.952-.395a1.4 1.4 0 0 1-.395-.952c0-.354.164-.722.395-.952.23-.231.598-.395.952-.395a9.22 9.22 0 0 0 6.58-2.725A9.2 9.2 0 0 0 21.306 12a9.22 9.22 0 0 0-2.726-6.581A9.22 9.22 0 0 0 12 2.694"/></svg>