<svg xmlns="http://www.w3.org/2000/svg" viewBox="0 0 24 24" width="24" height="24"><path fill="currentColor" d="m19.596 3.793 1.107 1.106a.782.782 0 1 1-1.107 1.107L18.49 4.899a.784.784 0 0 0-1.107 0l-.368.369 1.107 1.107a.78.78 0 0 1 0 1.107L16.03 9.57c.43 1.017.657 2.12.657 3.26a8.3 8.3 0 0 1-2.441 5.903 8.3 8.3 0 0 1-5.903 2.44 8.3 8.3 0 0 1-5.903-2.44c-3.255-3.255-3.255-8.551 0-11.806a8.3 8.3 0 0 1 5.903-2.44c1.14 0 2.243.225 3.26.656l2.09-2.09a.78.78 0 0 1 1.106 0l1.107 1.107.369-.368a2.35 2.35 0 0 1 3.32 0M8.348 18.043a5.18 5.18 0 0 0 3.688-1.529.782.782 0 1 0-1.107-1.107 3.63 3.63 0 0 1-2.581 1.071c-.974 0-1.89-.38-2.581-1.07a.782.782 0 1 0-1.107 1.106 5.18 5.18 0 0 0 3.688 1.53M23.249 7.317l.522.522a.782.782 0 1 1-1.107 1.107l-.522-.522a.782.782 0 1 1 1.107-1.107m-3.715 0a.782.782 0 1 1 1.106 1.107l-.521.522a.78.78 0 0 1-1.107 0 .78.78 0 0 1 0-1.107zm3.983-3.3a.78.78 0 0 1 .254 1.277l-.522.521a.782.782 0 1 1-1.107-1.106l.522-.522a.78.78 0 0 1 .853-.17"/></svg>