<svg xmlns="http://www.w3.org/2000/svg" viewBox="0 0 24 24" width="24" height="24"><path fill="currentColor" fill-rule="evenodd" clip-rule="evenodd" d="M2.571 7.715V2.572h5.143v5.143zM0 1.715C0 .769.766.001 1.714.001h6.857c.946 0 1.714.768 1.714 1.714v6.857c0 .946-.768 1.714-1.714 1.714H1.714A1.714 1.714 0 0 1 0 8.572zm13.714.428c0-.709.574-1.285 1.285-1.285h7.714a1.285 1.285 0 0 1 0 2.571h-7.714a1.285 1.285 0 0 1-1.285-1.286m1.285 4.714a1.286 1.286 0 1 0 0 2.572h7.714a1.286 1.286 0 0 0 0-2.572zM2.571 16.285v5.143h5.143v-5.143zm-.857-2.571c-.948 0-1.714.768-1.714 1.714v6.857c0 .946.766 1.714 1.714 1.714h6.857c.946 0 1.714-.768 1.714-1.714v-6.857c0-.946-.768-1.714-1.714-1.714zm13.285.857a1.286 1.286 0 1 0 0 2.572h7.714a1.286 1.286 0 0 0 0-2.572zm0 6a1.285 1.285 0 1 0 0 2.571h7.714a1.285 1.285 0 0 0 0-2.571z"/></svg>