<svg xmlns="http://www.w3.org/2000/svg" viewBox="0 0 24 24" width="24" height="24"><path fill="currentColor" d="M4.959 10.013c-3.811.002-6.193-4.121-4.29-7.422C2.573-.708 7.336-.71 9.241 2.587c.436.754.665 1.609.665 2.479a4.955 4.955 0 0 1-4.947 4.949zm0-3.066c1.446 0 2.351-1.567 1.628-2.821a1.879 1.879 0 0 0-3.508.94 1.88 1.88 0 0 0 1.88 1.881m15.395-3.86L6.993 23.09c-.904 1.244-2.813 1.046-3.441-.357a2 2 0 0 1 .122-1.859L17.035.87c.892-1.253 2.803-1.068 3.441.331a2 2 0 0 1-.122 1.886m3.644 15.924c0 3.809-4.123 6.191-7.422 4.288-3.299-1.904-3.301-6.664-.004-8.572A4.954 4.954 0 0 1 24 19.011zm-3.066 0c0-1.448-1.569-2.353-2.821-1.628-1.254.723-1.254 2.533 0 3.256a1.88 1.88 0 0 0 2.821-1.628"/></svg>