<svg xmlns="http://www.w3.org/2000/svg" viewBox="0 0 24 24" width="24" height="24"><path fill="currentColor" d="M24 20.529a2.39 2.39 0 0 1-2.4 2.38 2.39 2.39 0 0 1-2.4-2.38 2.39 2.39 0 0 1 2.4-2.381 2.39 2.39 0 0 1 2.4 2.381m-9.6 0a2.39 2.39 0 0 1-2.4 2.38 2.39 2.39 0 0 1-2.4-2.38 2.39 2.39 0 0 1 2.4-2.381 2.39 2.39 0 0 1 2.4 2.381m-9.6 0a2.39 2.39 0 0 1-2.4 2.38 2.39 2.39 0 0 1-2.4-2.38 2.39 2.39 0 0 1 2.4-2.381 2.39 2.39 0 0 1 2.4 2.381m9.6-17.058A2.39 2.39 0 0 1 12 5.852a2.39 2.39 0 0 1-2.4-2.381 2.39 2.39 0 0 1 2.4-2.38 2.39 2.39 0 0 1 2.4 2.38M19.2 12a2.39 2.39 0 0 1-2.4 2.38A2.39 2.39 0 0 1 14.4 12a2.39 2.39 0 0 1 2.4-2.38A2.39 2.39 0 0 1 19.2 12m-9.6 0a2.39 2.39 0 0 1-2.4 2.38A2.39 2.39 0 0 1 4.8 12a2.39 2.39 0 0 1 2.4-2.38A2.39 2.39 0 0 1 9.6 12"/></svg>