<svg xmlns="http://www.w3.org/2000/svg" viewBox="0 0 24 24" width="24" height="24"><path fill="currentColor" d="m14.314 9.68 7.458.001c.714.063 1.555.555 1.964 1.143l.016.024.007.016.006.01c.32.694.312 1.683-.018 2.287-.359.59-1.25 1.092-2.009 1.16h-7.424l-.001 7.459c-.062.711-.557 1.554-1.142 1.962l-.024.017-.016.007-.011.006c-.699.32-1.694.276-2.299-.026-.567-.375-1.077-1.238-1.148-2.001v-7.424l-7.458-.001c-.714-.062-1.557-.557-1.965-1.142l-.016-.025-.008-.015-.005-.011c-.32-.699-.276-1.694.027-2.3.375-.566 1.238-1.076 2.002-1.147h7.423l.001-7.458c.063-.714.558-1.557 1.143-1.965l.024-.016.016-.008.011-.005c.698-.32 1.694-.276 2.3.026.566.376 1.076 1.239 1.146 2.003z"/></svg>