<svg xmlns="http://www.w3.org/2000/svg" viewBox="0 0 24 24" width="24" height="24"><path fill="currentColor" d="m2.853 10.426 2.839 1.177a16.5 16.5 0 0 0-.763 2.489l-.107.49 4.07 4.073.489-.105a16.4 16.4 0 0 0 2.49-.764l1.178 2.84a.19.19 0 0 0 .134.11q.045.008.09-.005a.2.2 0 0 0 .076-.047l1.78-1.78a2.92 2.92 0 0 0 .856-2.224l-.063-1.144c3.295-2.433 6.628-6.699 7.536-14.145a1.22 1.22 0 0 0-.344-1.03 1.23 1.23 0 0 0-1.029-.35C14.642.926 10.372 4.262 7.939 7.547l-1.14-.059a2.95 2.95 0 0 0-1.202.187c-.382.146-.731.37-1.022.658l-1.781 1.779a.19.19 0 0 0-.061.175.18.18 0 0 0 .12.139m11.416-4.338a2.207 2.207 0 0 1 3.388.338 2.21 2.21 0 0 1 0 2.446 2.206 2.206 0 0 1-3.388.337 2.2 2.2 0 0 1-.647-1.56 2.2 2.2 0 0 1 .647-1.561M2.322 18.98a2.9 2.9 0 0 0-1.469-.116.27.27 0 0 1-.245-.074.27.27 0 0 1-.073-.143.25.25 0 0 1 .02-.158c.521-1.122 1.904-3.375 4.408-1.554a.1.1 0 0 1 .031.042.1.1 0 0 1 .011.051.1.1 0 0 1-.011.051.1.1 0 0 1-.031.042 2.71 2.71 0 0 0-1.035 2.226.2.2 0 0 0 .058.134.2.2 0 0 0 .133.058 2.72 2.72 0 0 0 2.227-1.014.14.14 0 0 1 .043-.034.1.1 0 0 1 .054-.011q.028 0 .054.011a.1.1 0 0 1 .043.034c.347.414 1.304 1.766.244 3.069a2.75 2.75 0 0 1-1.845.98c-1.028.11-2.927.445-3.703 1.332a.3.3 0 0 1-.118.08.27.27 0 0 1-.268-.058.25.25 0 0 1-.075-.121c-.274-.934-.7-3.025 1.547-4.827"/></svg>