<svg xmlns="http://www.w3.org/2000/svg" viewBox="0 0 24 24" width="24" height="24"><path fill="currentColor" d="M14.209 13.902a2.24 2.24 0 0 1-1.1 1.92 2.18 2.18 0 0 1-2.218 0c-.682-.4-1.1-1.13-1.1-1.92 0-.822.444-1.542 1.1-1.928a2.19 2.19 0 0 1 2.218 0 2.24 2.24 0 0 1 1.1 1.928m1.447-.773h6.345a10.2 10.2 0 0 0-1.314-4.268 10.1 10.1 0 0 0-3.021-3.28l-3.171 5.52a3.8 3.8 0 0 1 1.161 2.027m-6.151-2.027-3.171-5.52a10.1 10.1 0 0 0-3.02 3.279 10.1 10.1 0 0 0-1.315 4.267h6.345c.164-.781.57-1.49 1.16-2.027m3.66 6.368c-.376.126-.77.192-1.166.194-.397 0-.789-.071-1.164-.194l-3.172 5.52A9.9 9.9 0 0 0 12.001 24c1.56 0 3.022-.371 4.337-1.009zm2.491-2.8a3.8 3.8 0 0 1-1.162 2.026l3.173 5.523a10 10 0 0 0 3.019-3.279 10.1 10.1 0 0 0 1.311-4.269zm-7.312 0H2.001a10.1 10.1 0 0 0 1.313 4.269 10 10 0 0 0 3.022 3.275l3.172-5.52a3.76 3.76 0 0 1-1.164-2.024m5.96-10.596-.581 1.011a1.99 1.99 0 0 1-1.722 1 2 2 0 0 1-1.723-1l-.58-1.011c-.702.171-1.384.417-2.034.734l3.171 5.52a3.7 3.7 0 0 1 1.167-.198c.397 0 .791.071 1.166.194l3.173-5.52a10.3 10.3 0 0 0-2.036-.731"/><path fill="currentColor" d="M12.394 4.314 14.478.683A.458.458 0 0 0 14.085 0H9.916a.45.45 0 0 0-.453.458q0 .121.06.226l2.084 3.632a.454.454 0 0 0 .787 0"/></svg>