<svg xmlns="http://www.w3.org/2000/svg" viewBox="0 0 24 24" width="24" height="24"><path fill="currentColor" d="M14.251 24h-4.5c-.29.006-.57-.102-.782-.299a1.2 1.2 0 0 1-.388-.752l-.359-2.789a5 5 0 0 1-.736-.36 10 10 0 0 1-.675-.45l-2.61 1.08c-.27.099-.566.109-.841.028a1.1 1.1 0 0 1-.658-.508L.48 16.079a1.12 1.12 0 0 1-.15-.84 1.15 1.15 0 0 1 .452-.72l2.25-1.71a3 3 0 0 1-.03-.404v-.81q0-.195.03-.404L.782 9.479a1.14 1.14 0 0 1-.452-.72 1.12 1.12 0 0 1 .15-.84l2.222-3.87a.94.94 0 0 1 .644-.524c.282-.072.58-.057.855.044l2.61 1.08q.33-.238.691-.45.36-.208.72-.36l.36-2.79a1.2 1.2 0 0 1 .389-.75c.211-.197.492-.304.781-.299h4.499c.289-.003.569.105.781.301.216.195.354.461.389.749l.361 2.79q.389.152.735.36.344.212.675.45l2.61-1.08c.269-.098.564-.109.84-.029q.422.121.659.509l2.22 3.869q.24.39.15.84a1.16 1.16 0 0 1-.451.72l-2.25 1.71q.032.21.03.405v.81a1.7 1.7 0 0 1-.059.404l2.25 1.71c.235.174.397.432.45.72.063.289.009.592-.15.84l-2.219 3.84a1.18 1.18 0 0 1-.675.525c-.28.091-.58.085-.855-.016l-2.55-1.079a8 8 0 0 1-.69.45q-.36.211-.72.36l-.361 2.791a1.2 1.2 0 0 1-.389.75 1.12 1.12 0 0 1-.781.298m-2.189-7.8a4.05 4.05 0 0 0 2.97-1.23 4.05 4.05 0 0 0 1.228-2.968 4.05 4.05 0 0 0-1.229-2.97 4.06 4.06 0 0 0-2.97-1.23q-1.772 0-2.986 1.23a4.08 4.08 0 0 0-1.216 2.97q0 1.743 1.216 2.97 1.214 1.234 2.986 1.23"/></svg>