<svg xmlns="http://www.w3.org/2000/svg" viewBox="0 0 24 24" width="24" height="24"><path fill="currentColor" fill-rule="evenodd" clip-rule="evenodd" d="M19.711 5.999c1.319 0 2.143-1.427 1.484-2.57a1.713 1.713 0 1 0-1.484 2.57m0 2.57c3.298-.001 5.358-3.571 3.708-6.427s-5.772-2.855-7.42.001a4.3 4.3 0 0 0-.519 2.821L7.369 9.02C5.078 6.648 1.079 7.648.17 10.818s1.957 6.134 5.157 5.336a4.3 4.3 0 0 0 2.042-1.179l8.111 4.054c-.523 3.256 2.675 5.857 5.756 4.683s3.735-5.245 1.177-7.327a4.284 4.284 0 0 0-5.783.346l-8.109-4.056a4.3 4.3 0 0 0 0-1.357l8.11-4.056a4.28 4.28 0 0 0 3.081 1.307zm1.713 11.139c0 1.319-1.427 2.143-2.57 1.484a1.713 1.713 0 1 1 2.57-1.484M6.002 11.997c0 1.319-1.428 2.143-2.571 1.484a1.713 1.713 0 1 1 2.571-1.484"/></svg>