<svg xmlns="http://www.w3.org/2000/svg" viewBox="0 0 24 24" width="24" height="24"><path xmlns="http://www.w3.org/2000/svg" fill="#fff" d="M23.661 12.385a11.6 11.6 0 0 1-11.599 11.599A11.6 11.6 0 0 1 .463 12.385a11.599 11.599 0 0 1 23.198 0"/><path d="M11.303.716c-.401.022-.953.073-1.004.092a3 3 0 0 1-.284.05c-.134.02-.32.053-.412.073l-.348.077a9 9 0 0 0-.322.078l-.343.092c-.2.054-.735.24-.822.286a.2.2 0 0 1-.072.024 1 1 0 0 0-.149.053c-.18.08-.266.116-.364.156-.089.036-.787.371-.899.432-.069.038-.104-.003.794.917q.35.36.697.723c.285.302.286.303.364.271.153-.064 1.028-.32 1.245-.365.817-.169 1.375-.232 2.421-.273.576-.023 1.759.079 2.422.209.408.079.465.091.554.117.05.014.206.054.348.09s.385.105.541.155l.287.091c.002 0 .118-.136.257-.303a44 44 0 0 1 .564-.665c.178-.211.599-.667.757-.821a.7.7 0 0 0 .131-.155c0-.032-.433-.246-1.017-.504-.238-.105-.297-.128-.321-.128a.2.2 0 0 1-.072-.025c-.191-.104-1.342-.432-1.913-.544-.96-.189-2.022-.26-3.04-.203m10.335 4.94a17 17 0 0 0-.131.508c-.112.45-.197.763-.315 1.159l-.129.438c-.029.099-.127.403-.218.676l-.166.496.048.096.27.522c.414.796.717 1.576.881 2.262l.089.366c.169.628.285 1.68.288 2.615a6 6 0 0 1-.025.644 3.3 3.3 0 0 1-.147.561 8 8 0 0 0-.09.263c-.059.192-.372.777-.579 1.082a7.4 7.4 0 0 1-.877 1.108l-.26.284c-.165.186-.945.854-1.258 1.078a15.4 15.4 0 0 1-2.797 1.614c-.33.145-1.092.437-1.142.437a.5.5 0 0 0-.102.036 3 3 0 0 1-.472.144.2.2 0 0 0-.079.024c-.042.022-.237.069-.702.171l-.349.078a1.5 1.5 0 0 1-.245.037c-.049 0-.205.018-.346.04-.73.112-1.761.023-2.744-.239-.21-.056-.726-.214-.786-.241a2 2 0 0 0-.18-.065c-.665-.218-2.188-.931-2.698-1.262a.6.6 0 0 0-.111-.063c-.008 0-.103-.058-.21-.128a4 4 0 0 0-.203-.129c-.054 0-.927-.627-1.325-.951-.776-.632-1.061-.906-1.688-1.622-.11-.126-.398-.509-.398-.529 0-.007-.054-.09-.118-.184a2 2 0 0 1-.133-.215 1 1 0 0 0-.062-.108c-.458-.663-.555-1.332-.409-2.819.042-.432.203-1.378.282-1.661a20 20 0 0 1 .374-1.234c.056-.18.295-.79.401-1.02.045-.1.152-.329.236-.51.2-.431.2-.455.009-.972a14 14 0 0 1-.503-1.584c-.1-.359-.18-.696-.237-.999-.036-.188-.033-.189-.253.145A12 12 0 0 0 .973 7.994a2 2 0 0 0-.089.238c-.01.045-.029.089-.042.097s-.023.032-.023.054a.4.4 0 0 1-.037.121c-.094.212-.245.746-.416 1.472-.118.504-.203 1.222-.26 2.199-.024.427.073 1.571.185 2.168.07.374.17.817.232 1.03.188.646.226.763.338 1.022a.5.5 0 0 1 .035.109c0 .016.011.049.025.074s.073.161.131.302c.585 1.413 1.68 2.934 2.914 4.048.459.415.68.588 1.348 1.058.159.112.543.346.837.51.175.098 1.048.528 1.072.528.012 0 .067.024.332.141.153.068.681.246 1.147.386 1.924.58 4.445.596 6.427.04.113-.032.245-.067.292-.078q.078-.019.154-.047c.038-.014.156-.052.262-.083a3 3 0 0 0 .232-.077c.021-.011.097-.039.168-.064q.104-.036.206-.077l.309-.131a12 12 0 0 0 3.348-2.157c.464-.429.697-.67 1.111-1.149.087-.101.468-.607.672-.892.675-.946 1.304-2.334 1.647-3.63.407-1.538.466-3.68.14-5.101l-.08-.361a7 7 0 0 0-.091-.373c-.161-.545-.2-.67-.234-.76l-.074-.193c-.217-.58-.517-1.245-.733-1.623a12 12 0 0 0-.671-1.075l-.12-.16zm-3.501 4.764a.6.6 0 0 0 .141 0c.039-.006.007-.011-.071-.011s-.109.005-.07.011m-2.886 2.575a.2.2 0 0 0 .09 0c.025-.006.005-.012-.045-.012s-.069.006-.045.012" fill="#f30504"/><path d="M2.514.04c-.451.297-.751 1.806-.614 3.079.015.13.037.381.051.559.043.551.114 1.093.196 1.507.019.099.043.255.053.347a.6.6 0 0 0 .036.181.5.5 0 0 1 .046.154q.099.501.237.992a14 14 0 0 0 .503 1.584c.191.517.191.541-.009.972-.084.181-.191.41-.236.51-.106.23-.345.84-.401 1.02a20 20 0 0 0-.374 1.234c-.043.155-.151.725-.219 1.159-.056.362-.15 1.364-.129 1.385.005.005.095-.004.199-.02.388-.059.616-.074 1.168-.074.633-.001.937.03 1.486.149.949.206 2.067.855 2.841 1.649.158.162.145.164.232-.03.738-1.629 1.605-2.576 2.835-3.096.781-.33 1.874-.384 2.82-.139 1.267.328 2.34 1.323 2.911 2.701q.051.123.105.244c.013.029.054.132.09.231.037.099.073.189.08.202.008.012.091-.052.185-.142.604-.575 1.155-.934 2.021-1.317a.6.6 0 0 1 .125-.043.4.4 0 0 0 .108-.036c.239-.106.697-.216 1.215-.292.49-.072 1.921-.043 2.138.043.069.028.048-.588-.049-1.454a8 8 0 0 0-.197-1.12l-.089-.366c-.164-.686-.467-1.466-.881-2.262q-.136-.26-.27-.522l-.048-.096.166-.496c.091-.273.189-.577.218-.676l.129-.438c.119-.399.204-.711.315-1.159.056-.227.118-.465.138-.529.037-.115.066-.24.134-.579.121-.595.185-.967.228-1.327l.066-.541c.037-.311.039-1.479.003-1.7-.069-.416-.086-.495-.148-.685-.164-.502-.342-.792-.474-.773-.05.008-.149.021-.22.03a5 5 0 0 0-.631.153c-.787.221-2.073 1.04-2.768 1.762-.056.058-.117.105-.135.105s-.033.015-.034.034c0 .018-.059.09-.131.161a17 17 0 0 0-.977 1.079c-.05.057-.205.241-.344.407-.139.167-.255.303-.257.303l-.287-.091a9 9 0 0 0-.541-.155l-.348-.09a6 6 0 0 0-.554-.117c-.663-.13-1.846-.232-2.422-.209-1.046.041-1.604.104-2.421.273-.217.045-1.092.301-1.245.365-.078.032-.079.031-.364-.271a95 95 0 0 0-.697-.723c-.742-.76-.851-.878-.83-.903q.015-.02-.005-.005c-.013.011-.1-.053-.194-.141C5.104 1.105 4.412.588 3.743.274 3.255.046 2.673-.065 2.514.04m8.925.668a.4.4 0 0 0 .129-.001c.031-.006-.001-.011-.071-.01-.071 0-.097.005-.058.011M7.613 8.016c.771.205 1.321 1.263.845 1.626-.264.201-1.204.296-1.907.192-.606-.09-.69-.971-.142-1.474.354-.326.797-.452 1.204-.344m9.207.003c.826.214 1.251 1.156.753 1.668-.292.301-1.945.232-2.245-.094-.115-.125-.181-.37-.134-.496a.4.4 0 0 0 .025-.118c0-.097.136-.334.28-.49.401-.433.848-.592 1.321-.47m1.562 2.524c.072.261.081.343.082.751l.001.417-.174.158c-.354.321-.712.518-1.346.742-.351.124-.453.152-1.043.29-.384.09-1.035.131-1.365.085l-.123-.017.016-.153c.037-.35.35-.705.995-1.13a12.4 12.4 0 0 1 1.881-1.046c.274-.127.707-.236.913-.23l.127.004zm-12.128-.047c.218.045.371.093.541.169.29.129.71.343 1.005.511l.46.26c.902.495 1.445 1.014 1.446 1.382.001.59-2.964-.093-3.877-.893-.281-.246-.334-.824-.123-1.331.079-.189.095-.192.548-.098m-6.048.317c0 .05.006.07.012.046a.2.2 0 0 0 0-.091c-.006-.024-.012-.004-.012.045m23.624.348c0 .057.005.077.012.045a.3.3 0 0 0-.001-.103c-.006-.025-.012.002-.011.058m-23.727.786c0 .05.005.07.012.045a.2.2 0 0 0 0-.09c-.007-.025-.012-.005-.012.045m23.782.348c0 .17.004.236.009.147a3 3 0 0 0 0-.309c-.005-.081-.009-.008-.009.162m-23.782.502c0 .05.005.07.012.045a.2.2 0 0 0 0-.09c-.007-.025-.012-.005-.012.045m23.727.734c0 .057.005.077.012.045a.3.3 0 0 0-.001-.103c-.006-.025-.012.002-.011.058m-1.571 1.378c0 .064.005.09.011.058a.4.4 0 0 0 0-.116c-.006-.031-.011-.005-.011.058M3.704 18.601c0 .005.038.043.084.084l.083.076-.075-.084c-.071-.078-.092-.096-.092-.076m16.292.385-.076.084.084-.076a.6.6 0 0 0 .084-.084c0-.019-.021-.002-.092.076M3.253 20.242a.7.7 0 0 0 .113.103c.008 0-.032-.046-.087-.103a.7.7 0 0 0-.114-.103.5.5 0 0 0 .088.103m.644.644a.6.6 0 0 0 .114.103.5.5 0 0 0-.088-.103.7.7 0 0 0-.114-.103.5.5 0 0 0 .088.103m16.048.135-.076.084.084-.076a.6.6 0 0 0 .083-.083c0-.02-.021-.003-.091.075m-7.978 1.429a.3.3 0 0 0 .103-.001c.025-.006-.002-.011-.058-.011-.057 0-.077.006-.045.012m-.631 1.545a.2.2 0 0 0 .09 0c.024-.006.004-.012-.045-.012-.05 0-.07.006-.045.012" fill="#fba10b"/><path d="M5.772 10.46c-.138.186-.233.807-.163 1.072.013.051.031.123.038.16.029.142.415.44.862.666.893.451 2.651.804 3.083.619l.121-.052-.014-.138c-.035-.335-.341-.661-1.053-1.118a4 4 0 0 0-.264-.16c-.008 0-.14-.074-.292-.164-.582-.344-1.206-.657-1.516-.76-.325-.107-.764-.176-.802-.125m12.165-.016c-.485.1-1.143.402-1.983.91-1.088.657-1.48 1.038-1.526 1.48l-.014.138.299.018c1.167.073 2.856-.459 3.591-1.132l.161-.147-.001-.417c-.001-.399-.009-.469-.079-.745l-.032-.122-.182.003a2 2 0 0 0-.234.014m-6.814 4.145c-.341.106-.489.558-.388 1.183.078.481.658 1.011 1.348 1.234.04.013.045.055.045.399v.385l-.087.051a.7.7 0 0 0-.172.176l-.093.136c-.04.05-.986.009-1.361-.06-.207-.038-.815-.055-.846-.024-.009.009.018.056.06.104.11.125.167.251.217.478l.044.2h.102c.112 0 .113.001.191.258.052.173.202.498.267.581l.048.061.048-.109c.043-.095.048-.168.045-.626l-.004-.518.133.011c.073.006.237.022.364.035.757.08 1.692.08 2.358 0 .106-.013.282-.03.391-.039l.198-.017-.005.497c-.005.47-.002.503.053.605.059.111.11.162.11.11 0-.016.016-.066.037-.111s.089-.214.152-.377l.115-.297.136-.041.137-.041.081-.295c.044-.162.089-.338.099-.39l.018-.096-.381.001c-.314 0-.4.009-.486.048-.153.069-.362.087-.774.067l-.367-.019-.118-.151c-.067-.087-.144-.158-.182-.167l-.066-.016.007-.39.007-.39.103-.047c.791-.365 1.026-.714 1.029-1.525.002-.616-.075-.757-.479-.873-.2-.057-1.952-.058-2.134-.001m.065 4.32c.024.113.07.159.225.226l.133.057.085-.093c.149-.163.267-.116.431.171.105.182.234.147.484-.131.116-.129.107-.128.251-.019l.115.087.095-.069c.111-.08.138-.117.163-.23l.018-.083H11.17z" fill="#060505"/></svg>