<svg xmlns="http://www.w3.org/2000/svg" viewBox="0 0 24 24" width="24" height="24"><path fill="currentColor" d="M5.517 23.296a2.3 2.3 0 0 1-.706-1.696q0-.99.706-1.694a2.3 2.3 0 0 1 1.694-.706 2.3 2.3 0 0 1 1.696.706q.705.705.704 1.694a2.34 2.34 0 0 1-.704 1.696A2.3 2.3 0 0 1 7.211 24a2.32 2.32 0 0 1-1.694-.704m12 0a2.3 2.3 0 0 1-.706-1.696q0-.99.706-1.694a2.3 2.3 0 0 1 1.694-.706 2.3 2.3 0 0 1 1.696.706q.705.705.704 1.694a2.34 2.34 0 0 1-.704 1.696 2.3 2.3 0 0 1-1.696.704 2.32 2.32 0 0 1-1.694-.704M5.051 2.4h17.7q.69 0 1.05.616.36.615.03 1.244l-4.26 7.68q-.331.6-.884.93-.555.33-1.216.33h-8.94l-1.32 2.4h14.4V18h-14.4q-1.35 0-2.04-1.184-.69-1.185-.06-2.356l1.62-2.94-4.32-9.12h-2.4V0h3.9z"/></svg>