<svg xmlns="http://www.w3.org/2000/svg" viewBox="0 0 24 24" width="24" height="24"><path fill="currentColor" d="M8.92 7.298q-.804 1.233-1.836 3.656-.294-.6-.496-.97a9 9 0 0 0-.542-.85 3.8 3.8 0 0 0-.682-.758 3.2 3.2 0 0 0-.844-.468 3 3 0 0 0-1.092-.194h-3a.42.42 0 0 1-.308-.12.42.42 0 0 1-.12-.308V4.714q0-.189.12-.308.12-.12.308-.12h3q3.347 0 5.492 3.012M24 18q0 .187-.122.308l-4.284 4.286a.42.42 0 0 1-.308.12.4.4 0 0 1-.302-.128.4.4 0 0 1-.128-.3v-2.572a141 141 0 0 0-2.222.02q-.375.007-.978-.014a10 10 0 0 1-.952-.068q-.348-.046-.856-.14a3.5 3.5 0 0 1-.844-.248 18 18 0 0 1-.776-.382 3.8 3.8 0 0 1-.792-.534 12 12 0 0 1-.736-.718 8 8 0 0 1-.75-.93q.791-1.246 1.822-3.656.294.604.496.97.2.369.542.852.341.48.682.756.343.274.844.468a3 3 0 0 0 1.092.194h3.428v-2.57a.4.4 0 0 1 .122-.308.4.4 0 0 1 .308-.122q.16.001.32.134l4.272 4.272A.42.42 0 0 1 24 18m0-12q0 .187-.122.308l-4.284 4.286a.42.42 0 0 1-.308.12.4.4 0 0 1-.302-.128.4.4 0 0 1-.128-.3V7.714h-3.428q-.643 0-1.166.2a2.6 2.6 0 0 0-.924.604 5.4 5.4 0 0 0-.682.824q-.281.42-.604 1.038a35 35 0 0 0-1.044 2.29q-.388.883-.662 1.486-.275.603-.724 1.406-.447.804-.858 1.34-.408.535-.99 1.112-.582.575-1.206.916a6.6 6.6 0 0 1-3.14.784h-3a.42.42 0 0 1-.308-.12.42.42 0 0 1-.12-.308v-2.572q0-.189.12-.308.12-.12.308-.12h3q.641 0 1.166-.202.522-.2.924-.602.401-.402.682-.824.282-.423.602-1.038.428-.83 1.046-2.29.388-.884.662-1.486.275-.604.724-1.406.447-.805.856-1.34.41-.537.992-1.112t1.206-.918q.622-.34 1.426-.562a6.4 6.4 0 0 1 1.714-.22h3.428V1.714a.416.416 0 0 1 .43-.428q.16 0 .32.134l4.272 4.272A.4.4 0 0 1 24 6"/></svg>