<svg xmlns="http://www.w3.org/2000/svg" viewBox="0 0 24 24" width="24" height="24"><path fill="currentColor" d="m4.363 12 2.181-4.363V6.545H3.272v1.092h2.182L3.272 12m5.455 0 2.182-4.363V6.545H7.636v1.092h2.182L7.636 12m5.454 0 2.183-4.363V6.545h-3.274v1.092h2.182L11.999 12m9.818-10.909a2.19 2.19 0 0 0-2.181 2.182c0 .763.436 1.527 1.091 1.854v12.328h-3.273v-2.183c.655 0 1.091-.435 1.091-1.091V4.364c0-.655-.436-1.091-1.091-1.091h-4.145c-.873-1.31-2.4-2.182-4.037-2.182-1.636 0-3.163.872-4.036 2.182H1.091C.435 3.273 0 3.709 0 4.364v9.817c0 .656.435 1.091 1.091 1.091v7.637h16.363v-3.273h3.273c1.2 0 2.182-.981 2.182-2.181V5.127C23.563 4.8 24 4.036 24 3.273a2.19 2.19 0 0 0-2.183-2.182M13.09 19.636H5.454v-2.181h7.636zm3.274-6.545H2.181V5.454h14.183z"/></svg>