<svg xmlns="http://www.w3.org/2000/svg" viewBox="0 0 24 24" width="24" height="24"><path fill="currentColor" d="M12 24C5.372 24 0 18.628 0 12S5.372 0 12 0s12 5.372 12 12-5.372 12-12 12m-4.704-7.927c1.55 3.621 6.439 4.207 8.8 1.053.244-.325.448-.679.608-1.053a1.2 1.2 0 1 0-2.208-.946c-.826 1.923-3.421 2.229-4.673.553a2.8 2.8 0 0 1-.319-.553 1.2 1.2 0 0 0-2.208.946M8.4 7.2c-.662 0-1.2.538-1.2 1.2v2.4a1.2 1.2 0 0 0 2.4 0V8.4a1.2 1.2 0 0 0-1.2-1.2m7.2 0c-.662 0-1.2.538-1.2 1.2v2.4a1.2 1.2 0 0 0 2.4 0V8.4a1.2 1.2 0 0 0-1.2-1.2"/></svg>