<svg xmlns="http://www.w3.org/2000/svg" viewBox="0 0 24 24" width="24" height="24"><path fill="#66f9a1" d="M24 12a12 12 0 0 1-12 12A12 12 0 0 1 0 12a12 12 0 0 1 24 0"/><path fill="#fff" d="M7.444 14.765a.45.45 0 0 1 .311-.127H18.53a.217.217 0 0 1 .192.323.2.2 0 0 1-.037.05l-2.129 2.111a.45.45 0 0 1-.311.128H5.471a.218.218 0 0 1-.156-.373zm0-7.887a.45.45 0 0 1 .311-.128H18.53c.195 0 .294.236.155.374l-2.129 2.111a.45.45 0 0 1-.311.127H5.471a.218.218 0 0 1-.156-.372zm9.112 3.918a.45.45 0 0 0-.311-.127H5.471a.218.218 0 0 0-.156.373l2.129 2.112a.45.45 0 0 0 .311.127H18.53a.218.218 0 0 0 .155-.373z"/></svg>