<svg xmlns="http://www.w3.org/2000/svg" viewBox="0 0 24 24" width="24" height="24"><path fill="currentColor" d="M21.188 7.795q0 1.353-.958 2.31t-2.31.958-2.31-.958-.958-2.31.958-2.31 2.31-.958 2.31.958.958 2.31m-10.313 9.938q0-1.393-.978-2.371t-2.371-.978q-.362 0-.723.08l1.393.563q1.031.415 1.467 1.426t.02 2.029q-.415 1.031-1.433 1.46t-2.036.013q-.281-.107-.83-.328t-.817-.328q.429.804 1.219 1.292t1.741.489q1.393 0 2.371-.978t.978-2.371m11.116-9.924q0-1.688-1.199-2.886t-2.887-1.198q-1.701 0-2.9 1.199t-1.198 2.886q0 1.701 1.199 2.893t2.9 1.192q1.688 0 2.886-1.192t1.199-2.893m2.009 0q0 2.531-1.788 4.313t-4.307 1.781l-5.853 4.272q-.161 1.728-1.46 2.92t-3.067 1.192q-1.621 0-2.866-1.018t-1.58-2.571L0 17.464v-5.745l5.21 2.103q1.058-.643 2.317-.643.174 0 .469.027L11.8 7.755q.027-2.504 1.815-4.272t4.291-1.769q2.518 0 4.306 1.788T24 7.808"/></svg>