<svg xmlns="http://www.w3.org/2000/svg" viewBox="0 0 24 24" width="24" height="24"><path fill="currentColor" d="m8.834 18.961 1.088 1.088a1.27 1.27 0 0 1 0 1.793l-.331.331a1.27 1.27 0 0 1-1.793 0L5.955 20.33l-3.26 3.259a1.404 1.404 0 0 1-1.984 0l-.299-.298a1.4 1.4 0 0 1 0-1.985l3.259-3.259-1.916-1.915a1.27 1.27 0 0 1 0-1.793l.331-.331a1.27 1.27 0 0 1 1.793 0l1.161 1.161L15.78 1.141a.28.28 0 0 1 .183-.106L23.688.003a.276.276 0 0 1 .311.311l-1.032 7.725a.28.28 0 0 1-.106.183z"/><path fill="currentColor" d="m17.827 13.522-4.963 3.799 2.305 1.64-1.088 1.088a1.264 1.264 0 0 0 0 1.792l.331.331a1.27 1.27 0 0 0 1.793 0l1.844-1.843 3.259 3.259a1.404 1.404 0 0 0 1.985 0l.298-.298a1.404 1.404 0 0 0 0-1.985l-3.259-3.259 1.915-1.915a1.27 1.27 0 0 0 0-1.793l-.331-.331a1.27 1.27 0 0 0-1.793 0l-1.161 1.161zM6.102 11.895l5.114-6.681-2.994-4.073a.27.27 0 0 0-.183-.106L.314.003a.278.278 0 0 0-.311.311l1.033 7.725c.01.073.048.138.106.183z"/></svg>