<svg xmlns="http://www.w3.org/2000/svg" viewBox="0 0 42 24" width="42" height="24"><path fill="currentColor" d="m26.832 18.96 1.088 1.089a1.265 1.265 0 0 1 0 1.792l-.331.332a1.266 1.266 0 0 1-1.793 0l-1.843-1.843-3.259 3.259a1.403 1.403 0 0 1-1.984 0l-.299-.298a1.404 1.404 0 0 1 0-1.985l3.259-3.259-1.915-1.916a1.264 1.264 0 0 1 0-1.792l.331-.332a1.27 1.27 0 0 1 1.793 0l1.161 1.161L33.779 1.141a.28.28 0 0 1 .183-.106L41.687.002a.278.278 0 0 1 .311.311l-1.033 7.725a.28.28 0 0 1-.106.183zm-18 .001 1.088 1.088a1.265 1.265 0 0 1 0 1.792l-.331.332a1.266 1.266 0 0 1-1.793 0L5.953 20.33l-3.259 3.259a1.403 1.403 0 0 1-1.984 0l-.299-.298a1.404 1.404 0 0 1 0-1.985l3.259-3.259-1.915-1.916a1.264 1.264 0 0 1 0-1.792l.331-.332a1.27 1.27 0 0 1 1.793 0l1.161 1.161L15.779 1.141a.28.28 0 0 1 .183-.106L23.687.002a.278.278 0 0 1 .311.311l-1.033 7.725a.28.28 0 0 1-.106.183z"/></svg>