<svg xmlns="http://www.w3.org/2000/svg" viewBox="0 0 24 24" width="24" height="24"><path fill="currentColor" d="m6.102 10.218-.111 2.088 1.369 1.643h1.538l2.263-2.033.308-1.559-.727-.584h2.515l-.726.584.307 1.559 2.264 2.033h1.538l1.369-1.643-.111-2.088-.951-.947H7.053z"/><path fill="currentColor" d="m17.788 3.444-1.651-.549-.811-1.614L12.195 0 8.199.863 6.206 3.439l-.02-.015-1.034 1.17-.335 2.032-.531 1.476.531 4.093-.531.473v2.534l1.201 2.144v1.587l4.081 4.593L12 24l2.432-.474 4.08-4.593v-1.587l1.202-2.144v-2.534l-.531-.473.531-4.093-.531-1.476-.335-2.032-1.034-1.17zM12 4.538l2.963-.362.419-.891.307 1.086 1.23.557.503 1.281 1.118 2.283-.671.139.671 4.789c-.652 1.838-1.979 5.468-2.068 5.29a159 159 0 0 0-1.174-2.116l-1.733-1.615-1.565.028-1.566-.028-1.732 1.615a159 159 0 0 0-1.174 2.116c-.09.178-1.416-3.452-2.068-5.29l.67-4.789-.67-.139 1.117-2.283.503-1.281 1.23-.557.14 1.615.587-1.81zm-.923 11.805h1.845l.895.474.726 1.141.699.334-1.062 1.587-.978-.139-.95-1.002h-.504l-.95 1.002-.978.139-1.063-1.587.699-.334.727-1.141z"/></svg>