<svg xmlns="http://www.w3.org/2000/svg" viewBox="0 0 24 24" width="24" height="24"><path fill="currentColor" d="M8.4 9.6c-.662 0-1.2.538-1.2 1.2v2.4a1.2 1.2 0 1 0 2.4 0v-2.4c0-.662-.538-1.2-1.2-1.2m14.4 1.2c.662 0 1.2-.538 1.2-1.2V4.8c0-.662-.538-1.2-1.2-1.2H1.2C.538 3.6 0 4.138 0 4.8v4.8c0 .662.538 1.2 1.2 1.2a1.2 1.2 0 1 1 0 2.4c-.662 0-1.2.538-1.2 1.2v4.8c0 .662.538 1.2 1.2 1.2h21.6c.662 0 1.2-.538 1.2-1.2v-4.8c0-.662-.538-1.2-1.2-1.2a1.2 1.2 0 1 1 0-2.4m-1.2-2.184c-2.605.946-3.21 4.356-1.088 6.139.324.273.692.485 1.088.629V18h-12a1.2 1.2 0 1 0-2.4 0H2.4v-2.616c2.605-.946 3.21-4.356 1.088-6.139A3.6 3.6 0 0 0 2.4 8.616V6h4.8a1.2 1.2 0 1 0 2.4 0h12z"/></svg>