<svg xmlns="http://www.w3.org/2000/svg" viewBox="0 0 24 24" width="24" height="24"><path fill="#08c" d="M12 24c6.628 0 12-5.372 12-12S18.628 0 12 0 0 5.372 0 12s5.372 12 12 12"/><path fill="#fff" d="M8.662 7.928h6.732c.237 0 .475.036.723.152.249.122.455.316.592.559q.195.346.197.751c0 .256-.06.534-.197.776l-.005.008-4.252 7.304a.522.522 0 0 1-.903-.004l-4.175-7.288-.004-.006c-.096-.156-.242-.401-.268-.714a1.42 1.42 0 0 1 .812-1.404c.282-.132.568-.132.748-.132zm2.817 1.044H8.662c-.185 0-.256.012-.305.035a.37.37 0 0 0-.216.372c.005.045.023.096.129.271l.006.012 3.204 5.592V8.972zm1.044 0v6.31l3.276-5.628a.6.6 0 0 0 .063-.264.5.5 0 0 0-.054-.223 1 1 0 0 0-.083-.106.2.2 0 0 0-.048-.036.6.6 0 0 0-.285-.053z"/></svg>