<svg xmlns="http://www.w3.org/2000/svg" viewBox="0 0 24 24" width="24" height="24"><path fill="currentColor" d="M21.31 0h-3.59c-.243 0-.439.182-.439.405v2.03h-2.927V.406c0-.224-.197-.405-.439-.405h-3.834c-.243 0-.438.181-.438.405v2.027H6.716V.406c0-.224-.197-.405-.438-.405H2.687c-.242 0-.438.181-.438.405V4.76c.002 1.099.964 1.987 2.151 1.99h15.2c1.187-.002 2.148-.891 2.151-1.99V.406c0-.224-.196-.405-.439-.405M5.092 8.25h13.813l.594 13.122v.127a2.68 2.68 0 0 1-.61 1.717 2.1 2.1 0 0 1-1.513.783H15v-6c0-2.308-2.5-3.752-4.5-2.597A3 3 0 0 0 9 17.999V24H6.624a2.1 2.1 0 0 1-1.512-.784 2.68 2.68 0 0 1-.613-1.717v-.127z"/></svg>