<svg xmlns="http://www.w3.org/2000/svg" viewBox="0 0 24 24" width="24" height="24"><path fill="currentColor" d="M9.306 9.551v8.808a.85.85 0 0 1-.21.533.83.83 0 0 1-.524.21H7.6a.85.85 0 0 1-.532-.21.83.83 0 0 1-.211-.525V9.559a.85.85 0 0 1 .211-.533.82.82 0 0 1 .524-.21h.971c.19.005.412.089.533.21a.8.8 0 0 1 .158.239.6.6 0 0 1 .034.194m3.937.092-.001 8.808a.85.85 0 0 1-.21.533.83.83 0 0 1-.524.21h-.972a.85.85 0 0 1-.532-.21.83.83 0 0 1-.21-.525V9.559a.85.85 0 0 1 .21-.533.82.82 0 0 1 .524-.21h.971c.19.005.412.089.533.21a.8.8 0 0 1 .159.239.6.6 0 0 1 .034.194m3.936.092v8.808a.85.85 0 0 1-.21.533.83.83 0 0 1-.525.21h-.971a.85.85 0 0 1-.533-.21.83.83 0 0 1-.21-.525V9.559a.85.85 0 0 1 .21-.533.83.83 0 0 1 .525-.21h.971c.19.005.411.089.533.21a.8.8 0 0 1 .158.239.6.6 0 0 1 .034.194m1.487 11.174V6.367H5.388v14.266c-.002.204.025.367.091.532.064.174.119.273.176.338.064.072.029.038.032.048h12.681c-.048.028-.087.024-.023-.048.058-.065.112-.163.177-.337.065-.166.093-.329.09-.532M8.94 3.918h6.124l-.592-1.442c-.014-.019-.015-.02-.049-.027H9.592c-.033.008-.03.006-.051.033zm14.081.735-.001.972a.85.85 0 0 1-.21.532.82.82 0 0 1-.524.21h-1.225v14.266c-.006.885-.271 1.692-.77 2.347-.518.65-1.192 1.006-1.923 1.02H5.633c-.73-.014-1.401-.359-1.922-.987-.499-.636-.766-1.434-.772-2.319V6.367H1.722a.85.85 0 0 1-.532-.21.83.83 0 0 1-.211-.524l.001-.972a.84.84 0 0 1 .21-.532.82.82 0 0 1 .524-.211h4.567l1.007-2.403c.174-.411.495-.79.919-1.077C8.634.159 9.104.006 9.551 0h4.898c.447.006.917.159 1.345.438.424.287.743.663.917 1.075l1.008 2.405h4.558a.84.84 0 0 1 .533.211.8.8 0 0 1 .159.239c.033.081.034.193.034.193"/></svg>