<svg xmlns="http://www.w3.org/2000/svg" viewBox="0 0 24 24" width="24" height="24"><path fill="currentColor" d="M7.548 21.429c9.056 0 14.01-7.255 14.01-13.548 0-.206 0-.411-.015-.615A9.9 9.9 0 0 0 24 4.8a10.2 10.2 0 0 1-2.828.75 4.8 4.8 0 0 0 2.165-2.635c-.968.555-2.025.945-3.127 1.155a4.98 4.98 0 0 0-2.793-1.437 5.1 5.1 0 0 0-3.123.501 4.83 4.83 0 0 0-2.163 2.235 4.62 4.62 0 0 0-.312 3.045 14.4 14.4 0 0 1-5.62-1.444 13.95 13.95 0 0 1-4.527-3.531 4.64 4.64 0 0 0-.54 3.471 4.76 4.76 0 0 0 2.064 2.886 5 5 0 0 1-2.235-.597v.06a4.66 4.66 0 0 0 1.115 3.015 4.95 4.95 0 0 0 2.835 1.653 5.1 5.1 0 0 1-2.223.083 4.8 4.8 0 0 0 1.752 2.365 5.04 5.04 0 0 0 2.85.941A10.1 10.1 0 0 1 0 19.29a14.3 14.3 0 0 0 7.548 2.135"/></svg>