<svg xmlns="http://www.w3.org/2000/svg" viewBox="0 0 24 24" width="24" height="24"><path fill="currentColor" d="M.582 10.812A1.126 1.126 0 0 1 .16 9.246l1.713-2.959c.126-.228.32-.388.537-.48L11.357.78c.183-.137.411-.206.651-.206s.468.069.651.206l9.027 5.073c.217.114.4.297.502.526l1.657 2.879c.32.548.126 1.245-.411 1.554l-1.143.662v5.668c0 .434-.24.811-.605 1.005l-9.027 5.073a1.08 1.08 0 0 1-.651.206c-.24 0-.468-.069-.651-.206L2.33 18.147a1.13 1.13 0 0 1-.605-1.005v-6.33a1.17 1.17 0 0 1-1.143 0m11.426-7.781v7.655l6.81-3.828zM4.01 16.467l6.855 3.862v-7.666L4.01 8.812zm15.996 0v-3.679l-5.713 3.314a1.19 1.19 0 0 1-1.142.011v4.216zm-5.884-2.913 7.175-4.148-.663-1.154-7.175 4.148z"/></svg>