<svg xmlns="http://www.w3.org/2000/svg" viewBox="0 0 24 24" width="24" height="24"><path fill="currentColor" d="M10.612 1.518a1.637 1.637 0 0 1 2.777 0l2.658 4.311a1.63 1.63 0 0 0 1.331.769l5.054.178c1.19.043 1.932 1.291 1.385 2.332l-2.428 4.619a1.58 1.58 0 0 0 0 1.47l2.428 4.62c.547 1.043-.195 2.292-1.385 2.333l-5.412.192a.96.96 0 0 0-.786.454.967.967 0 0 1-1.704-.118l-.864-1.986c-.46-1.056.326-2.23 1.493-2.23h.539c1.248 0 2.03-1.326 1.411-2.392l-3.697-6.375a1.637 1.637 0 0 0-2.823 0l-3.698 6.373c-.619 1.066.164 2.393 1.411 2.393h.539c1.166 0 1.952 1.174 1.493 2.23l-.864 1.986a.968.968 0 0 1-1.665.177l-.039-.06a.96.96 0 0 0-.785-.454l-5.415-.189C.377 22.108-.364 20.86.184 19.818l2.428-4.622a1.58 1.58 0 0 0 0-1.469L.184 9.107c-.547-1.043.194-2.292 1.385-2.334l5.054-.177a1.63 1.63 0 0 0 1.331-.77z"/></svg>