<svg xmlns="http://www.w3.org/2000/svg" viewBox="0 0 24 24" width="24" height="24"><path fill="#009393" d="M5.228 1.201h13.823a.92.92 0 0 1 .798.463l4.028 7.008a.92.92 0 0 1-.151 1.117L12.641 20.756a.92.92 0 0 1-1.296 0L.274 9.803a.925.925 0 0 1-.138-1.14l4.306-7.022a.92.92 0 0 1 .786-.44M17.265 4.33v1.966h-3.937V7.66c2.765.145 4.841.744 4.855 1.46v1.497c-.015.716-2.09 1.315-4.855 1.46v3.347h-2.616v-3.347c-2.764-.145-4.839-.744-4.854-1.46V9.12c.015-.716 2.09-1.315 4.856-1.46V6.296H6.775V4.33zm-5.243 6.72c2.95 0 5.416-.505 6.021-1.181-.512-.573-2.364-1.025-4.716-1.148v1.428q-1.306.068-2.613 0V8.721c-2.352.123-4.204.575-4.716 1.148.605.676 3.072 1.181 6.024 1.181"/><path fill="#fff" fill-rule="evenodd" d="M17.265 4.33v1.966h-3.937V7.66c2.765.145 4.841.744 4.855 1.46v1.497c-.015.716-2.09 1.315-4.855 1.46v3.347h-2.616v-3.347c-2.764-.145-4.839-.744-4.854-1.46V9.12c.015-.716 2.09-1.315 4.856-1.46V6.296H6.775V4.33zm.778 5.539c-.604.676-3.072 1.181-6.023 1.181s-5.417-.505-6.021-1.181c.511-.573 2.364-1.025 4.715-1.148v1.428q1.307.068 2.614 0V8.721c2.351.123 4.203.575 4.715 1.148"/><path fill="#8247e5" d="M18 22.799c4.618 0 7.505-5 5.196-8.999a6 6 0 0 0-5.196-3c-4.619 0-7.505 5-5.196 8.999a6 6 0 0 0 5.196 3"/><path fill="#fff" d="M16.088 13.53c-.039.015-.456.24-.924.501-.603.336-.871.492-.913.529a.5.5 0 0 0-.096.124l-.033.068v2.122l.033.067c.065.129.087.142 1.025.664.48.266.895.492.924.5.079.024.226.02.304-.006.061-.022.641-.343 1.492-.824.943-.535 1.641-.921 1.698-.94a.4.4 0 0 1 .169-.017c.135.006.135.006.702.323.473.264.528.304.593.423a.6.6 0 0 1 .048.136c.017.095.017 1.044 0 1.139a.44.44 0 0 1-.132.248c-.078.072-1.01.609-1.1.632a.55.55 0 0 1-.268-.003 8 8 0 0 1-.542-.284c-.529-.293-.582-.33-.648-.465l-.034-.07-.006-.377-.006-.378-.377.213-.378.214v.336c0 .204.005.36.012.398a.42.42 0 0 0 .164.261c.099.073 1.771.996 1.832 1.01a.55.55 0 0 0 .296-.011c.04-.014.456-.24.924-.5.931-.517.941-.524 1.009-.664l.034-.069v-2.108l-.034-.069c-.064-.127-.087-.141-1.029-.669a25 25 0 0 0-.932-.507.6.6 0 0 0-.296.001c-.036.012-.32.168-.632.347s-.756.427-.984.552a91 91 0 0 0-.972.547q-.302.178-.614.336a.6.6 0 0 1-.303-.004c-.069-.024-.957-.52-1.044-.584a.55.55 0 0 1-.168-.241c-.026-.091-.025-1.147.002-1.241a.5.5 0 0 1 .132-.212c.06-.055 1.005-.578 1.087-.601a.6.6 0 0 1 .288.006c.023.006.259.133.527.282.445.247.49.276.556.344.123.127.126.144.132.576l.007.365.372-.211.372-.211-.002-.382-.004-.383-.038-.078a.4.4 0 0 0-.096-.128 50 50 0 0 0-1.789-1.025.6.6 0 0 0-.156-.024.4.4 0 0 0-.184.022"/></svg>