<svg xmlns="http://www.w3.org/2000/svg" viewBox="0 0 24 24" width="24" height="24"><path fill="#50af95" d="M24 12a12 12 0 0 1-12 12A12 12 0 0 1 0 12a12 12 0 0 1 24 0"/><path d="M13.437 12.789c-.082.006-.504.031-1.447.031-.75 0-1.283-.022-1.47-.031-2.898-.128-5.061-.632-5.061-1.236s2.163-1.108 5.061-1.238v1.971c.19.014.733.046 1.483.046.9 0 1.35-.038 1.432-.045v-1.97c2.892.128 5.05.633 5.05 1.236 0 .602-2.157 1.107-5.05 1.235zm0-2.676V8.349h4.037v-2.69H6.484v2.69h4.036v1.763c-3.281.151-5.747.801-5.747 1.579 0 .779 2.467 1.428 5.747 1.579v5.653h2.917v-5.655c3.272-.15 5.735-.8 5.735-1.578 0-.777-2.461-1.427-5.735-1.578z" fill="#fff"/></svg>