<svg xmlns="http://www.w3.org/2000/svg" viewBox="0 0 24 24" width="24" height="24"><path d="M4.394 1.663.018 10.855a.18.18 0 0 0 .038.209l11.819 11.325a.18.18 0 0 0 .25 0l11.819-11.325a.18.18 0 0 0 .038-.208l-4.376-9.192a.18.18 0 0 0-.161-.103H4.557a.18.18 0 0 0-.163.102" fill="#50af95"/><path d="M13.518 11.8c-.084.006-.523.032-1.5.032-.779 0-1.331-.024-1.524-.032-3.006-.132-5.25-.656-5.25-1.282s2.244-1.15 5.25-1.284v2.046c.196.014.758.048 1.536.048.934 0 1.402-.04 1.486-.048V9.235c3 .135 5.238.658 5.238 1.283s-2.238 1.148-5.238 1.28zm0-2.776V7.195h4.187v-2.79H6.307v2.79h4.186v1.829c-3.402.156-5.961.829-5.961 1.637 0 .807 2.559 1.481 5.961 1.638v5.862h3.024v-5.865c3.395-.156 5.948-.829 5.948-1.635 0-.808-2.551-1.481-5.947-1.637" fill="#fff"/></svg>