<svg xmlns="http://www.w3.org/2000/svg" viewBox="0 0 24 24" width="24" height="24"><path fill="#eb322a" d="M24 12a12 12 0 0 1-12 12A12 12 0 0 1 0 12a12 12 0 0 1 24 0"/><path d="M13.591 13.085q-.785.042-1.572.033c-.815 0-1.392-.024-1.596-.033-3.146-.139-5.496-.687-5.496-1.343s2.35-1.202 5.496-1.344v2.141c.207.014.796.049 1.611.049.976 0 1.466-.041 1.554-.048V10.4c3.14.14 5.484.688 5.484 1.342s-2.344 1.202-5.484 1.342zm0-2.907V8.264h4.381v-2.92H6.042v2.92h4.38v1.914c-3.56.164-6.239.869-6.239 1.714 0 .846 2.679 1.55 6.24 1.716v6.136h3.167v-6.14c3.552-.163 6.227-.867 6.227-1.712s-2.671-1.549-6.228-1.714z" fill="#fff"/></svg>