<svg xmlns="http://www.w3.org/2000/svg" viewBox="0 0 24 24" width="24" height="24"><path fill="#009393" d="M5.228 1.201h13.823c.33 0 .634.176.798.463l4.028 7.007a.925.925 0 0 1-.151 1.118L12.641 20.756a.92.92 0 0 1-1.296 0L.275 9.803a.92.92 0 0 1-.138-1.14l4.305-7.022a.92.92 0 0 1 .786-.44M17.266 4.33v1.965h-3.937V7.66c2.764.145 4.84.744 4.855 1.46v1.496c-.016.717-2.091 1.316-4.855 1.461v3.346h-2.616v-3.346c-2.765-.145-4.84-.744-4.855-1.461V9.12c.015-.716 2.09-1.315 4.856-1.46V6.295H6.776V4.33zm-5.244 6.72c2.951 0 5.416-.506 6.021-1.181-.512-.574-2.364-1.025-4.716-1.148v1.427q-1.307.069-2.613 0V8.721c-2.352.123-4.203.574-4.716 1.148.605.675 3.072 1.181 6.024 1.181"/><path fill="#fff" fill-rule="evenodd" d="M17.266 4.33v1.965h-3.937V7.66c2.764.145 4.84.744 4.855 1.46v1.496c-.016.717-2.091 1.316-4.855 1.461v3.346h-2.616v-3.346c-2.765-.145-4.84-.744-4.855-1.461V9.12c.015-.716 2.09-1.315 4.856-1.46V6.295H6.776V4.33zm.777 5.539c-.603.675-3.072 1.181-6.022 1.181-2.952 0-5.418-.506-6.022-1.181.512-.574 2.364-1.025 4.715-1.148v1.427q1.308.069 2.615 0V8.721c2.35.123 4.202.574 4.714 1.148"/><path d="M12 16.8a6 6 0 1 0 12 0 6 6 0 1 0-12 0"/><path fill="#fff" d="M15.57 13.288a.21.21 0 0 1 .167-.088h5.745c.105 0 .156.162.084.257l-1.136 1.455a.22.22 0 0 1-.166.088h-5.746c-.105 0-.156-.162-.084-.257zm0 5.399a.21.21 0 0 1 .167-.087h5.745c.105 0 .156.162.084.256l-1.136 1.456a.22.22 0 0 1-.166.088h-5.746c-.105 0-.156-.162-.084-.257zm4.694-2.787c.061 0 .121.031.166.087l1.135 1.456c.074.095.022.257-.084.257h-5.744a.21.21 0 0 1-.167-.088l-1.135-1.455c-.074-.095-.022-.257.084-.257z"/></svg>