<svg xmlns="http://www.w3.org/2000/svg" viewBox="0 0 24 24" width="24" height="24"><path fill="currentColor" d="M1.091 20.727q-.462 0-.777-.314A1.05 1.05 0 0 1 0 19.636v-1.963q0-.927.477-1.705a3.2 3.2 0 0 1 1.268-1.187 16.2 16.2 0 0 1 3.438-1.267 15 15 0 0 1 3.544-.423 15 15 0 0 1 3.546.423q1.746.422 3.436 1.267.791.41 1.268 1.187a3.2 3.2 0 0 1 .478 1.705v1.963q0 .464-.313.777-.315.314-.778.314zm18.028 0a1.3 1.3 0 0 0 .382-.477q.135-.285.135-.641v-2.154q0-1.2-.667-2.304-.668-1.106-1.896-1.897 1.39.165 2.619.56 1.226.395 2.291.967.981.547 1.499 1.215.518.667.518 1.459v2.181q0 .464-.313.777-.313.314-.778.314zM8.727 12q-1.8 0-3.08-1.281-1.283-1.284-1.283-3.083t1.283-3.082q1.28-1.281 3.08-1.281t3.082 1.281q1.283 1.282 1.282 3.082.001 1.8-1.282 3.083-1.28 1.28-3.082 1.281m10.909-4.364q0 1.8-1.281 3.083-1.282 1.28-3.082 1.281-.3 0-.764-.068a7 7 0 0 1-.764-.15 6.5 6.5 0 0 0 1.132-1.936q.397-1.064.396-2.21 0-1.144-.396-2.209a6.5 6.5 0 0 0-1.132-1.936q.383-.137.764-.178a7 7 0 0 1 .764-.04q1.8 0 3.082 1.281 1.282 1.282 1.281 3.082"/></svg>