<svg xmlns="http://www.w3.org/2000/svg" viewBox="0 0 24 24" width="24" height="24"><path fill="currentColor" d="M21.333 12.001q0-2.767-1.466-5.049a9.1 9.1 0 0 0-3.934-3.417 1.5 1.5 0 0 1-.733-.716 1.26 1.26 0 0 1-.067-.984q.2-.534.718-.767a1.23 1.23 0 0 1 1.049 0 11.74 11.74 0 0 1 5.167 4.384Q23.999 8.402 24 12q0 3.596-1.933 6.551a11.7 11.7 0 0 1-5.167 4.382 1.25 1.25 0 0 1-1.051 0 1.32 1.32 0 0 1-.716-.766 1.26 1.26 0 0 1 .067-.983q.233-.484.733-.717a9.1 9.1 0 0 0 3.934-3.416q1.466-2.284 1.466-5.051m-16 4.035h-4q-.567 0-.949-.384a1.3 1.3 0 0 1-.384-.95V9.368q0-.568.384-.949.384-.384.949-.384h4l4.4-4.4q.633-.635 1.451-.284.816.348.816 1.25v14.867q0 .9-.816 1.251t-1.451-.284zm12.667-4q0 1.4-.633 2.65a6 6 0 0 1-1.667 2.05.66.66 0 0 1-.684.017.61.61 0 0 1-.349-.584V7.835a.61.61 0 0 1 .35-.583.66.66 0 0 1 .683.016 6.25 6.25 0 0 1 1.667 2.1A5.9 5.9 0 0 1 18 12.035"/></svg>