<svg xmlns="http://www.w3.org/2000/svg" viewBox="0 0 24 24" width="24" height="24"><path fill="currentColor" d="M18.712 20.605q-.344.218-.689.407a8 8 0 0 1-.719.344 1.1 1.1 0 0 1-.954 0 1.25 1.25 0 0 1-.673-.72 1.06 1.06 0 0 1 .047-.922q.236-.454.704-.674.124-.062.235-.125t.234-.125l-4.162-4.162v3.474q0 .843-.766 1.174-.766.329-1.361-.267l-4.131-4.13H2.722q-.532 0-.891-.361a1.22 1.22 0 0 1-.36-.891V8.621q0-.533.36-.892.36-.36.891-.36h2.754L.344 2.237A1.2 1.2 0 0 1 0 1.361Q0 .829.344.485T1.22.141q.533 0 .876.344l21.278 21.278q.344.343.344.876 0 .531-.344.876-.344.344-.876.344t-.876-.344zm2.785-9.512q0-2.599-1.377-4.74a8.53 8.53 0 0 0-3.692-3.208 1.4 1.4 0 0 1-.689-.672 1.2 1.2 0 0 1-.062-.924q.187-.502.673-.72.486-.219.985 0a11.04 11.04 0 0 1 4.85 4.099Q24 7.681 24 11.093q0 1.032-.188 2.05a12 12 0 0 1-.532 1.955q-.249.688-.766.861-.516.172-.955.015a1.38 1.38 0 0 1-.703-.563q-.265-.407-.016-.939.344-.814.5-1.642a9.4 9.4 0 0 0 .157-1.737m-5.288-4.444q1.032.657 1.595 1.972.564 1.313.564 2.503v.313q0 .156-.032.313-.062.406-.438.532-.375.123-.688-.188l-1.596-1.596a1.27 1.27 0 0 1-.375-.907v-2.41q0-.376.329-.547a.62.62 0 0 1 .641.015m-6.29-1.846a.6.6 0 0 1 0-.876l.689-.688q.594-.595 1.36-.267t.767 1.174v1.971q0 .438-.375.595t-.689-.157z"/></svg>