<svg xmlns="http://www.w3.org/2000/svg" viewBox="0 0 24 24" width="24" height="24"><path fill="currentColor" d="M24 18.429v2.142a2.144 2.144 0 0 1-2.142 2.143H3.428A3.433 3.433 0 0 1 0 19.285V4.715a3.43 3.43 0 0 1 3.428-3.428h15.859a1.286 1.286 0 1 1 0 2.571H3.428a.858.858 0 0 0 0 1.714h18.43c1.181 0 2.142.961 2.142 2.143v2.142h-4.286a4.29 4.29 0 0 0-4.285 4.285 4.29 4.29 0 0 0 4.286 4.286z"/><path fill="currentColor" d="M24 11.572v5.143h-4.286c-1.98 0-3.217-2.143-2.227-3.857a2.57 2.57 0 0 1 2.227-1.286z"/></svg>