<svg xmlns="http://www.w3.org/2000/svg" viewBox="0 0 24 24" width="24" height="24"><path fill="currentColor" d="M20.055 12.803a.88.88 0 0 0-.872.872c0 .244.082.435.246.597.163.172.388.27.626.273a.88.88 0 0 0 .626-.273.8.8 0 0 0 .245-.597.86.86 0 0 0-.871-.872"/><path fill="currentColor" d="M24 13.946c0-2.748-4.762-5.007-10.857-5.252v.082l.082.544c3.211.19 5.958.979 7.456 2.096.789.597 1.252 1.251 1.252 1.986 0 .299-.082.571-.218.844q-.329.61-1.062 1.142c-1.714 1.251-5.007 2.095-8.789 2.095s-7.075-.844-8.789-2.095q-.735-.53-1.061-1.142a2 2 0 0 1-.218-.844c0-.572.299-1.116.816-1.633 1.361-1.307 4.327-2.259 7.891-2.449l.082-.598C4.708 9.048.137 11.253.137 13.946c0 .137.027.273.027.408.054.354.191.681.409 1.007 0 0 0 .027.026.027 1.415 2.203 6.014 3.809 11.455 3.809 4.163 0 7.81-.925 9.932-2.367-2.014 1.796-6.04 2.993-10.694 2.993-5.196 0-9.604-1.523-11.292-3.647.626 3.05 5.741 5.416 11.946 5.416 6.639 0 12.027-2.694 12.027-6.04v-1.333h-.028c.055-.055.055-.165.055-.273"/><path fill="currentColor" d="m13.361 10.055.408 2.829c0 .599-1.551.899-1.878.899s-1.877-.299-1.877-.871l.408-2.857c-2.912.272-5.089 1.361-5.089 2.639 0 .572.436 1.116 1.198 1.551 1.197.68 3.156 1.143 5.36 1.143s4.163-.463 5.361-1.142c.761-.436 1.197-.981 1.197-1.552 0-1.278-2.177-2.367-5.088-2.639"/><path fill="currentColor" d="M7.865 8.259c.251-.003.494-.101.679-.272h2.45l-.11.734-.081.599-.027.245-.082.49-.408 2.911c0 .218 1.116.572 1.605.572.49 0 1.606-.354 1.606-.598l-.409-2.885-.08-.49-.028-.245-.082-.544v-.055l-.108-.707h2.72c.186.173.427.27.681.273a1.02 1.02 0 0 0 1.006-1.008 1.02 1.02 0 0 0-1.007-1.006 1.03 1.03 0 0 0-.68.271h-2.938l-.055-.381c.055-.027.082-.027.137-.053.054-.028.081-.028.136-.055a1.9 1.9 0 0 0 1.033-1.714 1.94 1.94 0 0 0-1.932-1.933c-1.06 0-1.932.872-1.932 1.933 0 .735.436 1.388 1.033 1.714.056.027.083.055.137.055.055.026.083.026.137.053l-.054.381H8.544a1.03 1.03 0 0 0-.679-.271A1.02 1.02 0 0 0 6.857 7.28c0 .516.463.979 1.008.979m5.277-4.108s-.107-.245-.57-.654c-.245-.245-.681-.49-.681-.49a1.21 1.21 0 0 1 1.252 1.144"/></svg>